<?xml version="1.0" encoding="utf-8" standalone="no"?>
<!DOCTYPE svg PUBLIC "-//W3C//DTD SVG 1.1//EN"
  "http://www.w3.org/Graphics/SVG/1.1/DTD/svg11.dtd">
<svg xmlns:xlink="http://www.w3.org/1999/xlink" width="252pt" height="187.2pt" viewBox="0 0 252 187.2" xmlns="http://www.w3.org/2000/svg" version="1.1">
 <metadata>
  <rdf:RDF xmlns:dc="http://purl.org/dc/elements/1.1/" xmlns:cc="http://creativecommons.org/ns#" xmlns:rdf="http://www.w3.org/1999/02/22-rdf-syntax-ns#">
   <cc:Work>
    <dc:type rdf:resource="http://purl.org/dc/dcmitype/StillImage"/>
    <dc:date>2024-12-03T17:52:49.779047</dc:date>
    <dc:format>image/svg+xml</dc:format>
    <dc:creator>
     <cc:Agent>
      <dc:title>Matplotlib v3.7.2, https://matplotlib.org/</dc:title>
     </cc:Agent>
    </dc:creator>
   </cc:Work>
  </rdf:RDF>
 </metadata>
 <defs>
  <style type="text/css">*{stroke-linejoin: round; stroke-linecap: butt}</style>
 </defs>
 <g id="figure_1">
  <g id="patch_1">
   <path d="M 0 187.2 
L 252 187.2 
L 252 0 
L 0 0 
z
" style="fill: #ffffff"/>
  </g>
  <g id="axes_1">
   <g id="patch_2">
    <path d="M 31.5 166.608 
L 226.8 166.608 
L 226.8 22.464 
L 31.5 22.464 
z
" style="fill: #ffffff"/>
   </g>
   <g id="matplotlib.axis_1">
    <g id="xtick_1">
     <g id="line2d_1">
      <defs>
       <path id="m42646f273d" d="M 0 0 
L 0 3.5 
" style="stroke: #000000; stroke-width: 0.8"/>
      </defs>
      <g>
       <use xlink:href="#m42646f273d" x="40.582247" y="166.608" style="stroke: #000000; stroke-width: 0.8"/>
      </g>
     </g>
     <g id="text_1">
      <!-- −1.0 -->
      <g transform="translate(28.44084 181.206438) scale(0.1 -0.1)">
       <defs>
        <path id="DejaVuSans-2212" d="M 678 2272 
L 4684 2272 
L 4684 1741 
L 678 1741 
L 678 2272 
z
" transform="scale(0.015625)"/>
        <path id="DejaVuSans-31" d="M 794 531 
L 1825 531 
L 1825 4091 
L 703 3866 
L 703 4441 
L 1819 4666 
L 2450 4666 
L 2450 531 
L 3481 531 
L 3481 0 
L 794 0 
L 794 531 
z
" transform="scale(0.015625)"/>
        <path id="DejaVuSans-2e" d="M 684 794 
L 1344 794 
L 1344 0 
L 684 0 
L 684 794 
z
" transform="scale(0.015625)"/>
        <path id="DejaVuSans-30" d="M 2034 4250 
Q 1547 4250 1301 3770 
Q 1056 3291 1056 2328 
Q 1056 1369 1301 889 
Q 1547 409 2034 409 
Q 2525 409 2770 889 
Q 3016 1369 3016 2328 
Q 3016 3291 2770 3770 
Q 2525 4250 2034 4250 
z
M 2034 4750 
Q 2819 4750 3233 4129 
Q 3647 3509 3647 2328 
Q 3647 1150 3233 529 
Q 2819 -91 2034 -91 
Q 1250 -91 836 529 
Q 422 1150 422 2328 
Q 422 3509 836 4129 
Q 1250 4750 2034 4750 
z
" transform="scale(0.015625)"/>
       </defs>
       <use xlink:href="#DejaVuSans-2212"/>
       <use xlink:href="#DejaVuSans-31" x="83.789062"/>
       <use xlink:href="#DejaVuSans-2e" x="147.412109"/>
       <use xlink:href="#DejaVuSans-30" x="179.199219"/>
      </g>
     </g>
    </g>
    <g id="xtick_2">
     <g id="line2d_2">
      <g>
       <use xlink:href="#m42646f273d" x="84.865143" y="166.608" style="stroke: #000000; stroke-width: 0.8"/>
      </g>
     </g>
     <g id="text_2">
      <!-- −0.5 -->
      <g transform="translate(72.723737 181.206438) scale(0.1 -0.1)">
       <defs>
        <path id="DejaVuSans-35" d="M 691 4666 
L 3169 4666 
L 3169 4134 
L 1269 4134 
L 1269 2991 
Q 1406 3038 1543 3061 
Q 1681 3084 1819 3084 
Q 2600 3084 3056 2656 
Q 3513 2228 3513 1497 
Q 3513 744 3044 326 
Q 2575 -91 1722 -91 
Q 1428 -91 1123 -41 
Q 819 9 494 109 
L 494 744 
Q 775 591 1075 516 
Q 1375 441 1709 441 
Q 2250 441 2565 725 
Q 2881 1009 2881 1497 
Q 2881 1984 2565 2268 
Q 2250 2553 1709 2553 
Q 1456 2553 1204 2497 
Q 953 2441 691 2322 
L 691 4666 
z
" transform="scale(0.015625)"/>
       </defs>
       <use xlink:href="#DejaVuSans-2212"/>
       <use xlink:href="#DejaVuSans-30" x="83.789062"/>
       <use xlink:href="#DejaVuSans-2e" x="147.412109"/>
       <use xlink:href="#DejaVuSans-35" x="179.199219"/>
      </g>
     </g>
    </g>
    <g id="xtick_3">
     <g id="line2d_3">
      <g>
       <use xlink:href="#m42646f273d" x="129.148039" y="166.608" style="stroke: #000000; stroke-width: 0.8"/>
      </g>
     </g>
     <g id="text_3">
      <!-- 0.0 -->
      <g transform="translate(121.196477 181.206438) scale(0.1 -0.1)">
       <use xlink:href="#DejaVuSans-30"/>
       <use xlink:href="#DejaVuSans-2e" x="63.623047"/>
       <use xlink:href="#DejaVuSans-30" x="95.410156"/>
      </g>
     </g>
    </g>
    <g id="xtick_4">
     <g id="line2d_4">
      <g>
       <use xlink:href="#m42646f273d" x="173.430936" y="166.608" style="stroke: #000000; stroke-width: 0.8"/>
      </g>
     </g>
     <g id="text_4">
      <!-- 0.5 -->
      <g transform="translate(165.479373 181.206438) scale(0.1 -0.1)">
       <use xlink:href="#DejaVuSans-30"/>
       <use xlink:href="#DejaVuSans-2e" x="63.623047"/>
       <use xlink:href="#DejaVuSans-35" x="95.410156"/>
      </g>
     </g>
    </g>
    <g id="xtick_5">
     <g id="line2d_5">
      <g>
       <use xlink:href="#m42646f273d" x="217.713832" y="166.608" style="stroke: #000000; stroke-width: 0.8"/>
      </g>
     </g>
     <g id="text_5">
      <!-- 1.0 -->
      <g transform="translate(209.762269 181.206438) scale(0.1 -0.1)">
       <use xlink:href="#DejaVuSans-31"/>
       <use xlink:href="#DejaVuSans-2e" x="63.623047"/>
       <use xlink:href="#DejaVuSans-30" x="95.410156"/>
      </g>
     </g>
    </g>
    <g id="text_6">
     <!-- $x$ (m) -->
     <g transform="translate(115.8 194.884563) scale(0.1 -0.1)">
      <defs>
       <path id="DejaVuSans-Oblique-78" d="M 3841 3500 
L 2234 1784 
L 3219 0 
L 2559 0 
L 1819 1388 
L 531 0 
L -166 0 
L 1556 1844 
L 641 3500 
L 1300 3500 
L 1972 2234 
L 3144 3500 
L 3841 3500 
z
" transform="scale(0.015625)"/>
       <path id="DejaVuSans-20" transform="scale(0.015625)"/>
       <path id="DejaVuSans-28" d="M 1984 4856 
Q 1566 4138 1362 3434 
Q 1159 2731 1159 2009 
Q 1159 1288 1364 580 
Q 1569 -128 1984 -844 
L 1484 -844 
Q 1016 -109 783 600 
Q 550 1309 550 2009 
Q 550 2706 781 3412 
Q 1013 4119 1484 4856 
L 1984 4856 
z
" transform="scale(0.015625)"/>
       <path id="DejaVuSans-6d" d="M 3328 2828 
Q 3544 3216 3844 3400 
Q 4144 3584 4550 3584 
Q 5097 3584 5394 3201 
Q 5691 2819 5691 2113 
L 5691 0 
L 5113 0 
L 5113 2094 
Q 5113 2597 4934 2840 
Q 4756 3084 4391 3084 
Q 3944 3084 3684 2787 
Q 3425 2491 3425 1978 
L 3425 0 
L 2847 0 
L 2847 2094 
Q 2847 2600 2669 2842 
Q 2491 3084 2119 3084 
Q 1678 3084 1418 2786 
Q 1159 2488 1159 1978 
L 1159 0 
L 581 0 
L 581 3500 
L 1159 3500 
L 1159 2956 
Q 1356 3278 1631 3431 
Q 1906 3584 2284 3584 
Q 2666 3584 2933 3390 
Q 3200 3197 3328 2828 
z
" transform="scale(0.015625)"/>
       <path id="DejaVuSans-29" d="M 513 4856 
L 1013 4856 
Q 1481 4119 1714 3412 
Q 1947 2706 1947 2009 
Q 1947 1309 1714 600 
Q 1481 -109 1013 -844 
L 513 -844 
Q 928 -128 1133 580 
Q 1338 1288 1338 2009 
Q 1338 2731 1133 3434 
Q 928 4138 513 4856 
z
" transform="scale(0.015625)"/>
      </defs>
      <use xlink:href="#DejaVuSans-Oblique-78" transform="translate(0 0.125)"/>
      <use xlink:href="#DejaVuSans-20" transform="translate(59.179688 0.125)"/>
      <use xlink:href="#DejaVuSans-28" transform="translate(90.966797 0.125)"/>
      <use xlink:href="#DejaVuSans-6d" transform="translate(129.980469 0.125)"/>
      <use xlink:href="#DejaVuSans-29" transform="translate(227.392578 0.125)"/>
     </g>
    </g>
   </g>
   <g id="matplotlib.axis_2">
    <g id="ytick_1">
     <g id="line2d_6">
      <defs>
       <path id="me98b8fb7d4" d="M 0 0 
L -3.5 0 
" style="stroke: #000000; stroke-width: 0.8"/>
      </defs>
      <g>
       <use xlink:href="#me98b8fb7d4" x="31.5" y="158.470237" style="stroke: #000000; stroke-width: 0.8"/>
      </g>
     </g>
     <g id="text_7">
      <!-- −1.0 -->
      <g transform="translate(0.217187 162.269456) scale(0.1 -0.1)">
       <use xlink:href="#DejaVuSans-2212"/>
       <use xlink:href="#DejaVuSans-31" x="83.789062"/>
       <use xlink:href="#DejaVuSans-2e" x="147.412109"/>
       <use xlink:href="#DejaVuSans-30" x="179.199219"/>
      </g>
     </g>
    </g>
    <g id="ytick_2">
     <g id="line2d_7">
      <g>
       <use xlink:href="#me98b8fb7d4" x="31.5" y="125.76379" style="stroke: #000000; stroke-width: 0.8"/>
      </g>
     </g>
     <g id="text_8">
      <!-- −0.5 -->
      <g transform="translate(0.217187 129.563009) scale(0.1 -0.1)">
       <use xlink:href="#DejaVuSans-2212"/>
       <use xlink:href="#DejaVuSans-30" x="83.789062"/>
       <use xlink:href="#DejaVuSans-2e" x="147.412109"/>
       <use xlink:href="#DejaVuSans-35" x="179.199219"/>
      </g>
     </g>
    </g>
    <g id="ytick_3">
     <g id="line2d_8">
      <g>
       <use xlink:href="#me98b8fb7d4" x="31.5" y="93.057343" style="stroke: #000000; stroke-width: 0.8"/>
      </g>
     </g>
     <g id="text_9">
      <!-- 0.0 -->
      <g transform="translate(8.596875 96.856562) scale(0.1 -0.1)">
       <use xlink:href="#DejaVuSans-30"/>
       <use xlink:href="#DejaVuSans-2e" x="63.623047"/>
       <use xlink:href="#DejaVuSans-30" x="95.410156"/>
      </g>
     </g>
    </g>
    <g id="ytick_4">
     <g id="line2d_9">
      <g>
       <use xlink:href="#me98b8fb7d4" x="31.5" y="60.350896" style="stroke: #000000; stroke-width: 0.8"/>
      </g>
     </g>
     <g id="text_10">
      <!-- 0.5 -->
      <g transform="translate(8.596875 64.150115) scale(0.1 -0.1)">
       <use xlink:href="#DejaVuSans-30"/>
       <use xlink:href="#DejaVuSans-2e" x="63.623047"/>
       <use xlink:href="#DejaVuSans-35" x="95.410156"/>
      </g>
     </g>
    </g>
    <g id="ytick_5">
     <g id="line2d_10">
      <g>
       <use xlink:href="#me98b8fb7d4" x="31.5" y="27.644449" style="stroke: #000000; stroke-width: 0.8"/>
      </g>
     </g>
     <g id="text_11">
      <!-- 1.0 -->
      <g transform="translate(8.596875 31.443668) scale(0.1 -0.1)">
       <use xlink:href="#DejaVuSans-31"/>
       <use xlink:href="#DejaVuSans-2e" x="63.623047"/>
       <use xlink:href="#DejaVuSans-30" x="95.410156"/>
      </g>
     </g>
    </g>
    <g id="text_12">
     <!-- $y$ (m) -->
     <g transform="translate(-5.882813 107.886) rotate(-90) scale(0.1 -0.1)">
      <defs>
       <path id="DejaVuSans-Oblique-79" d="M 1588 -325 
Q 1188 -997 936 -1164 
Q 684 -1331 294 -1331 
L -159 -1331 
L -63 -850 
L 269 -850 
Q 509 -850 678 -719 
Q 847 -588 1056 -206 
L 1234 128 
L 459 3500 
L 1069 3500 
L 1650 819 
L 3256 3500 
L 3859 3500 
L 1588 -325 
z
" transform="scale(0.015625)"/>
      </defs>
      <use xlink:href="#DejaVuSans-Oblique-79" transform="translate(0 0.125)"/>
      <use xlink:href="#DejaVuSans-20" transform="translate(59.179688 0.125)"/>
      <use xlink:href="#DejaVuSans-28" transform="translate(90.966797 0.125)"/>
      <use xlink:href="#DejaVuSans-6d" transform="translate(129.980469 0.125)"/>
      <use xlink:href="#DejaVuSans-29" transform="translate(227.392578 0.125)"/>
     </g>
    </g>
   </g>
   <g id="line2d_11">
    <path d="M 128.618448 93.36958 
L 129.067791 93.561741 
L 129.067791 93.561741 
" clip-path="url(#pd3b84302aa)" style="fill: none; stroke: #1f77b4; stroke-width: 0.4; stroke-linecap: square"/>
   </g>
   <g id="line2d_12">
    <path d="M 156.664692 86.320207 
L 155.268979 84.526916 
L 153.654658 82.806295 
L 151.826392 81.176086 
L 149.792146 79.654254 
L 147.563422 78.258562 
L 145.155379 77.006076 
L 142.586799 75.912628 
L 139.764449 74.957862 
L 136.82055 74.20411 
L 133.786462 73.661342 
L 130.695459 73.335872 
L 127.581705 73.230152 
L 124.479186 73.342754 
L 121.420694 73.668559 
L 118.319549 74.224449 
L 115.330539 74.989027 
L 112.481109 75.946907 
L 109.794496 77.080789 
L 107.289644 78.372157 
L 104.896616 79.859399 
L 102.727567 81.474419 
L 100.790472 83.19621 
L 99.089714 85.004594 
L 97.626612 86.880485 
L 96.399934 88.806053 
L 95.406372 90.764808 
L 94.616915 92.814995 
L 94.065818 94.869246 
L 93.744965 96.913675 
L 93.645847 99.007439 
L 93.773575 101.064817 
L 94.117175 103.074701 
L 94.687855 105.093387 
L 95.46503 107.040921 
L 96.471751 108.969454 
L 97.713667 110.861893 
L 99.194485 112.700299 
L 100.862558 114.415955 
L 102.760343 116.047846 
L 104.886174 117.576804 
L 107.168731 118.946258 
L 109.661184 120.182464 
L 112.355764 121.265211 
L 115.164618 122.152481 
L 118.067235 122.83978 
L 121.124367 123.333416 
L 124.236446 123.608417 
L 127.380889 123.661782 
L 130.534713 123.491116 
L 133.674378 123.094652 
L 136.694729 122.490621 
L 139.6555 121.671187 
L 142.456148 120.667608 
L 145.154419 119.461857 
L 147.656573 118.097919 
L 149.950511 116.594985 
L 152.026693 114.972337 
L 153.878107 113.249264 
L 155.500245 111.44495 
L 156.934204 109.514183 
L 158.123965 107.532741 
L 159.071371 105.51998 
L 159.780867 103.494692 
L 160.259449 101.474918 
L 160.522309 99.400066 
L 160.559081 97.361189 
L 160.372092 95.294578 
L 159.971541 93.294135 
L 159.346265 91.294513 
L 158.489545 89.310844 
L 157.396536 87.359654 
L 156.122591 85.533599 
L 154.628757 83.770629 
L 152.918011 82.088211 
L 150.996459 80.504234 
L 148.873622 79.036629 
L 146.562631 77.702912 
L 144.08028 76.519664 
L 141.334253 75.46338 
L 138.451127 74.601469 
L 135.460868 73.945682 
L 132.395855 73.504313 
L 129.289912 73.281879 
L 126.177251 73.279 
L 123.091417 73.492481 
L 119.944892 73.936743 
L 116.894969 74.596576 
L 113.971127 75.457847 
L 111.198779 76.504143 
L 108.599056 77.717487 
L 106.188828 79.079 
L 103.900156 80.629133 
L 101.839703 82.297057 
L 100.013684 84.062117 
L 98.424972 85.904624 
L 97.073622 87.806068 
L 95.957367 89.749245 
L 95.043645 91.791538 
L 94.372008 93.845535 
L 93.934869 95.896607 
L 93.72368 97.931561 
L 93.73329 100.009556 
L 93.964589 102.045747 
L 94.425327 104.096976 
L 95.098939 106.081864 
L 96.005328 108.053477 
L 97.111867 109.93548 
L 98.449584 111.775798 
L 100.021614 113.556615 
L 101.829051 115.259345 
L 103.81011 116.820952 
L 106.01306 118.274419 
L 108.43333 119.600033 
L 110.991016 120.74814 
L 113.742869 121.737822 
L 116.599159 122.529797 
L 119.619833 123.132975 
L 122.706799 123.51927 
L 125.837625 123.68538 
L 128.989546 123.628599 
L 132.139327 123.346837 
L 135.181436 122.854936 
L 138.176143 122.1477 
L 141.021976 121.252947 
L 143.777961 120.155222 
L 146.348798 118.895025 
L 148.721892 117.491082 
L 150.950446 115.913368 
L 152.953576 114.22017 
L 154.724723 112.431154 
L 156.259889 110.565881 
L 157.557624 108.643683 
L 158.619017 106.683521 
L 159.447666 104.703836 
L 160.068029 102.647742 
L 160.454564 100.602669 
L 160.619515 98.507522 
L 160.556693 96.454517 
L 160.265261 94.379803 
L 159.760199 92.377937 
L 159.027048 90.383813 
L 158.059913 88.413226 
L 156.854984 86.483325 
L 155.473345 84.685944 
L 153.872896 82.960112 
L 152.0581 81.323546 
L 150.036703 79.794211 
L 147.819973 78.389898 
L 145.422838 77.127733 
L 142.863853 76.023647 
L 140.049878 75.056919 
L 137.112507 74.29049 
L 134.082955 73.734542 
L 130.994409 73.395623 
L 127.88101 73.276424 
L 124.776788 73.375751 
L 121.71464 73.688701 
L 118.60778 74.231872 
L 115.611318 74.984568 
L 112.75294 75.931536 
L 110.056136 77.055567 
L 107.540102 78.338199 
L 105.134669 79.817567 
L 102.95265 81.425921 
L 101.002239 83.142217 
L 99.288007 84.946221 
L 97.811433 86.818779 
L 96.571415 88.741988 
L 95.564748 90.699278 
L 94.76204 92.748812 
L 94.198106 94.803207 
L 93.864882 96.848501 
L 93.753482 98.943843 
L 93.869496 101.003419 
L 94.201965 103.016054 
L 94.761753 105.038105 
L 95.528674 106.989473 
L 96.525465 108.922404 
L 97.757833 110.819795 
L 99.182103 112.60958 
L 100.83634 114.334893 
L 102.721125 115.977264 
L 104.834876 117.517503 
L 107.106656 118.898679 
L 109.589361 120.147349 
L 112.27532 121.243282 
L 115.076957 122.144072 
L 117.97376 122.845182 
L 121.026383 123.353263 
L 124.135449 123.642934 
L 127.278396 123.711153 
L 130.432273 123.555484 
L 133.573584 123.174115 
L 136.597116 122.584832 
L 139.562685 121.780144 
L 142.369619 120.790855 
L 145.075843 119.599273 
L 147.587402 118.248924 
L 149.892131 116.758933 
L 151.980419 115.148523 
L 153.845178 113.436915 
L 155.481812 111.643233 
L 156.931867 109.722518 
L 158.138774 107.750128 
L 159.104256 105.745357 
L 159.83262 103.726941 
L 160.33071 101.712878 
L 160.614349 99.642693 
L 160.672287 97.607178 
L 160.507527 95.542671 
L 160.129258 93.542917 
L 159.527024 91.54253 
L 158.693939 89.556502 
L 157.624949 87.601221 
L 156.374182 85.769495 
L 154.903372 83.999055 
L 153.215187 82.307306 
L 151.315387 80.712109 
L 149.213125 79.231415 
L 146.921147 77.882806 
L 144.455866 76.68299 
L 141.837268 75.647252 
L 138.971657 74.757171 
L 135.994523 74.071767 
L 132.937963 73.599845 
L 129.835664 73.346466 
L 126.721849 73.312797 
L 123.630222 73.496167 
L 120.473058 73.910343 
L 117.408222 74.541792 
L 114.465718 75.376744 
L 111.671525 76.399051 
L 109.047357 77.590905 
L 106.610652 78.933513 
L 104.292904 80.466758 
L 102.202297 82.12054 
L 100.345519 83.874095 
L 98.725847 85.707596 
L 97.343674 87.60237 
L 96.197007 89.541039 
L 95.252415 91.58075 
L 94.550776 93.634105 
L 94.084646 95.686291 
L 93.845581 97.723938 
L 93.827573 99.806217 
L 94.03258 101.848051 
L 94.467547 103.90639 
L 95.116854 105.89954 
L 95.999669 107.88076 
L 97.084189 109.773335 
L 98.400789 111.625459 
L 99.952731 113.419291 
L 101.741234 115.136216 
L 103.705115 116.712719 
L 105.892185 118.182168 
L 108.297998 119.52482 
L 110.843104 120.690501 
L 113.583965 121.698733 
L 116.431214 122.509691 
L 119.444634 123.132755 
L 122.526414 123.539273 
L 125.654145 123.725886 
L 128.805099 123.689832 
L 131.956091 123.428963 
L 135.001532 122.957505 
L 138.001771 122.270744 
L 140.933296 121.368666 
L 143.696348 120.285079 
L 146.275674 119.038479 
L 148.658614 117.647534 
L 150.898665 116.082528 
L 152.914605 114.401296 
L 154.699796 112.62344 
L 156.25015 110.768454 
L 157.564117 108.855608 
L 158.642673 106.903803 
L 159.515793 104.859499 
L 160.147832 102.807261 
L 160.546407 100.76532 
L 160.724146 98.672641 
L 160.674312 96.621295 
L 160.396477 94.547444 
L 159.904997 92.545568 
L 159.185838 90.550525 
L 158.232991 88.578024 
L 157.042511 86.645139 
L 155.674738 84.843819 
L 154.087973 83.112952 
L 152.286486 81.470226 
L 150.277806 79.933602 
L 148.072978 78.520896 
L 145.686696 77.249292 
L 143.137294 76.13481 
L 140.331728 75.156373 
L 137.400966 74.377513 
L 134.376074 73.808618 
L 131.290147 73.456463 
L 128.1773 73.323975 
L 125.071597 73.41019 
L 122.00603 73.710422 
L 118.893717 74.240987 
L 115.890068 74.981884 
L 113.023005 75.917995 
L 110.316267 77.032209 
L 107.789295 78.306116 
L 105.371696 79.777603 
L 103.176931 81.379268 
L 101.21341 83.090034 
L 99.485893 84.889614 
L 97.996018 86.758788 
L 96.742816 88.679582 
L 95.723189 90.635351 
L 94.907365 92.684168 
L 94.330716 94.738646 
L 93.985234 96.784743 
L 93.862064 98.80981 
L 93.958781 100.872927 
L 94.272913 102.890026 
L 94.814759 104.917558 
L 95.564788 106.875186 
L 96.545222 108.815312 
L 97.761868 110.720815 
L 99.171579 112.519327 
L 100.812003 114.254208 
L 102.683808 115.906968 
L 104.785501 117.458398 
L 107.046522 118.851209 
L 109.519497 120.11225 
L 112.122857 121.193841 
L 114.914396 122.113385 
L 117.803052 122.833652 
L 120.849341 123.361773 
L 123.95415 123.671794 
L 127.094947 123.760619 
L 130.24882 123.625754 
L 133.392331 123.265329 
L 136.420191 122.696509 
L 139.392324 121.912283 
L 142.207879 120.942828 
L 144.925025 119.770918 
L 147.449513 118.439443 
L 149.769085 116.967444 
L 151.874036 115.374054 
L 153.757168 113.678411 
L 155.464244 111.840004 
L 156.930207 109.92932 
L 158.154066 107.965981 
L 159.137424 105.969218 
L 159.884456 103.957714 
L 160.417012 101.873875 
L 160.713078 99.806537 
L 160.783681 97.773097 
L 160.632233 95.709918 
L 160.267319 93.710652 
L 159.67891 91.709891 
L 158.860023 89.72254 
L 157.80548 87.764903 
L 156.56868 85.929874 
L 155.111769 84.155053 
L 153.437231 82.457804 
L 151.550623 80.855969 
L 149.460875 79.367503 
L 147.180503 78.010027 
L 144.725687 76.800318 
L 142.116191 75.753766 
L 139.258402 74.85159 
L 136.287212 74.153433 
L 133.23459 73.668319 
L 130.134152 73.401541 
L 127.020115 73.354504 
L 123.926243 73.524767 
L 120.764721 73.925812 
L 117.693646 74.54484 
L 114.743241 75.368245 
L 111.93973 76.380001 
L 109.305078 77.562379 
L 106.856972 78.896627 
L 104.526662 80.422385 
L 102.422992 82.069874 
L 100.55286 83.818291 
L 98.919723 85.647748 
L 97.524123 87.539503 
L 96.364192 89.476105 
L 95.406122 91.514596 
L 94.691372 93.567587 
L 94.212564 95.620183 
L 93.9613 97.658939 
L 93.9312 99.743027 
L 94.124691 101.787271 
L 94.548367 103.848666 
L 95.187022 105.845382 
L 96.059503 107.830759 
L 97.13437 109.727918 
L 98.44171 111.585169 
L 99.984843 113.384658 
L 101.710085 115.059045 
L 103.661492 116.64625 
L 105.837023 118.127183 
L 108.232324 119.482084 
L 110.768272 120.660403 
L 113.501118 121.681978 
L 116.34176 122.506591 
L 119.349855 123.14396 
L 122.4278 123.565028 
L 125.553198 123.766394 
L 128.703348 123.745256 
L 131.855098 123.499424 
L 134.902823 123.042682 
L 137.906922 122.370662 
L 140.843945 121.483299 
L 143.613985 120.413946 
L 146.201727 119.181042 
L 148.662789 117.760013 
L 150.909779 116.202756 
L 152.933454 114.528827 
L 154.727131 112.757787 
L 156.286667 110.909092 
L 157.610452 109.001973 
L 158.699394 107.055296 
L 159.583799 105.015639 
L 160.227592 102.96735 
L 160.638297 100.928631 
L 160.828928 98.83851 
L 160.792197 96.788908 
L 160.528093 94.716002 
L 160.050339 92.714192 
L 159.345334 90.718298 
L 158.406959 88.743945 
L 157.231129 86.808123 
L 155.877431 85.0029 
L 154.304577 83.267017 
L 152.516638 81.618132 
L 150.520927 80.074199 
L 148.328259 78.653056 
L 145.953092 77.371942 
L 143.413531 76.246969 
L 140.616633 75.256693 
L 137.692722 74.465241 
L 134.672706 73.883211 
L 131.589582 73.51761 
L 128.477432 73.371601 
L 125.370351 73.444459 
L 122.301424 73.731719 
L 119.183667 74.249411 
L 116.172794 74.978246 
L 113.296964 75.90325 
L 110.580168 77.007409 
L 108.042099 78.272372 
L 105.698241 79.679098 
L 103.482099 81.269409 
L 101.496568 82.970774 
L 99.74673 84.76282 
L 98.234493 86.626219 
L 96.959115 88.542874 
L 95.917678 90.496013 
L 95.079778 92.543562 
L 94.481725 94.598119 
L 94.115602 96.645511 
L 93.972622 98.672968 
L 94.049743 100.739596 
L 94.345249 102.761144 
L 94.868864 104.794158 
L 95.601723 106.758063 
L 96.565528 108.705415 
L 97.766183 110.619074 
L 99.161083 112.426368 
L 100.787445 114.170883 
L 102.646027 115.83411 
L 104.735427 117.396819 
L 106.985469 118.801358 
L 109.448499 120.074876 
L 112.043265 121.169311 
L 114.827368 122.102389 
L 117.709996 122.836488 
L 120.751563 123.379078 
L 123.853148 123.703797 
L 126.992239 123.807508 
L 130.145955 123.687675 
L 133.290897 123.342386 
L 136.321724 122.788357 
L 139.298434 122.018927 
L 142.12005 121.063817 
L 144.844914 119.906141 
L 147.378566 118.588328 
L 149.708685 117.129357 
L 151.825493 115.548301 
L 153.721718 113.864234 
L 155.443523 112.036922 
L 156.925374 110.136416 
L 158.166175 108.182271 
L 159.167408 106.193657 
L 159.933116 104.189202 
L 160.485745 102.111465 
L 160.802467 100.048971 
L 160.894132 98.019084 
L 160.764826 95.95822 
L 160.42213 93.959865 
L 159.856728 91.958583 
L 159.061475 89.969132 
L 158.030991 88.00768 
L 156.817453 86.167256 
L 155.3837 84.385249 
L 153.731914 82.678952 
L 151.867309 81.066176 
L 149.798449 79.564884 
L 147.537465 78.192756 
L 145.100153 76.966683 
L 142.505909 75.90223 
L 139.661256 74.98002 
L 136.700094 74.260725 
L 133.65417 73.75373 
L 130.55698 73.464716 
L 127.442734 73.395484 
L 124.345287 73.543972 
L 121.176681 73.923192 
L 118.095388 74.521566 
L 115.131999 75.325761 
L 112.313141 76.319954 
L 109.661198 77.486549 
L 107.194267 78.806866 
L 104.843204 80.320133 
L 102.71794 81.957115 
L 100.825723 83.696938 
L 99.17031 85.519617 
L 97.752494 87.406295 
L 96.570611 89.339397 
L 95.621004 91.30269 
L 94.875953 93.354698 
L 94.367835 95.408106 
L 94.088363 97.449292 
L 94.030293 99.537427 
L 94.197137 101.587111 
L 94.577868 103.587461 
L 95.184842 105.594563 
L 96.026573 107.592086 
L 97.072694 109.502659 
L 98.352444 111.374933 
L 99.869304 113.191021 
L 101.570452 114.882997 
L 103.49927 116.489235 
L 105.653877 117.990614 
L 107.962051 119.331445 
L 110.477608 120.537254 
L 113.192546 121.587871 
L 116.018349 122.442225 
L 118.934518 123.095923 
L 122.002022 123.554438 
L 125.120848 123.793794 
L 128.268361 123.811087 
L 131.421495 123.604017 
L 134.556609 123.170923 
L 137.568694 122.531121 
L 140.51727 121.675934 
L 143.302121 120.637722 
L 145.907791 119.434798 
L 148.390425 118.043301 
L 150.662026 116.514122 
L 152.713195 114.866676 
L 154.537075 113.120381 
L 156.129332 111.294552 
L 157.48814 109.408282 
L 158.649502 107.412091 
L 159.566979 105.386332 
L 160.245241 103.34989 
L 160.691531 101.320885 
L 160.920003 99.238536 
L 160.921753 97.19432 
L 160.697988 95.124465 
L 160.260587 93.123124 
L 159.597217 91.125021 
L 158.70144 89.145528 
L 157.568766 87.201395 
L 156.256575 85.385014 
L 154.724789 83.634708 
L 152.976905 81.968042 
L 151.019605 80.402944 
L 148.863027 78.957311 
L 146.520941 77.648534 
L 144.010775 76.492979 
L 141.2399 75.468133 
L 138.336717 74.639848 
L 135.33166 74.019331 
L 132.257423 73.61426 
L 129.147969 73.428503 
L 126.037472 73.462032 
L 122.959272 73.711035 
L 119.826104 74.190705 
L 116.794529 74.88386 
L 113.8934 75.775951 
L 111.147447 76.850266 
L 108.577109 78.088639 
L 106.198586 79.472105 
L 103.944623 81.041775 
L 101.920072 82.72599 
L 100.130598 84.504227 
L 98.578603 86.356966 
L 97.263751 88.265897 
L 97.088994 88.552428 
L 97.088994 88.552428 
" clip-path="url(#pd3b84302aa)" style="fill: none; stroke: #ff7f0e; stroke-width: 0.4; stroke-linecap: square"/>
   </g>
   <g id="line2d_13">
    <path d="M 192.624427 97.633213 
L 192.838908 94.840664 
L 192.829823 92.042998 
L 192.59701 89.249959 
L 192.141076 86.471295 
L 191.463399 83.716723 
L 190.566125 80.995895 
L 189.452167 78.318367 
L 188.097076 75.642689 
L 186.525232 73.031642 
L 184.705801 70.446835 
L 182.67355 67.949052 
L 180.435947 65.547893 
L 177.95348 63.210384 
L 175.275983 60.992175 
L 172.35914 58.864762 
L 169.26248 56.879303 
L 165.937719 55.012233 
L 162.453525 53.309179 
L 158.758591 51.751894 
L 154.929947 50.37945 
L 150.914297 49.179198 
L 146.796029 48.182665 
L 142.59403 47.394693 
L 138.327622 46.819165 
L 134.016471 46.458977 
L 129.605639 46.315466 
L 125.190251 46.39765 
L 120.8658 46.698255 
L 116.577522 47.21558 
L 112.345369 47.947385 
L 108.189059 48.890414 
L 104.127973 50.040406 
L 100.248042 51.367135 
L 96.495879 52.882803 
L 92.888407 54.580655 
L 89.500881 56.418788 
L 86.283452 58.417483 
L 83.302583 60.528387 
L 80.511768 62.776961 
L 77.967888 65.10947 
L 75.6287 67.556157 
L 73.540947 70.058992 
L 71.667464 72.652515 
L 70.044521 75.275478 
L 68.640726 77.966167 
L 67.481742 80.661164 
L 66.542523 83.401894 
L 65.826293 86.178496 
L 65.33546 88.980987 
L 65.074594 91.743959 
L 65.032617 94.512629 
L 65.209485 97.277474 
L 65.604392 100.029005 
L 66.230199 102.812073 
L 67.078769 105.561581 
L 68.146846 108.267772 
L 69.430394 110.921065 
L 70.955983 113.56221 
L 72.6947 116.128952 
L 74.679271 118.658786 
L 76.870478 121.092025 
L 79.306621 123.462337 
L 81.938413 125.713607 
L 84.809036 127.875151 
L 87.859558 129.895444 
L 91.137237 131.798989 
L 94.57413 133.53986 
L 98.220666 135.13737 
L 102.000724 136.552164 
L 105.966919 137.79808 
L 110.035999 138.843257 
L 114.189468 139.683215 
L 118.4817 140.323436 
L 122.821685 140.744883 
L 127.189161 140.945825 
L 131.563781 140.925544 
L 135.925202 140.68434 
L 140.253181 140.223521 
L 144.527655 139.545397 
L 148.728838 138.653265 
L 152.8373 137.551391 
L 156.767347 136.268804 
L 160.571899 134.79439 
L 164.233975 133.134812 
L 167.678266 131.330679 
L 170.954311 129.36275 
L 173.995346 127.278074 
L 176.847658 125.052207 
L 179.453808 122.737622 
L 181.855902 120.305076 
L 184.006394 117.811431 
L 185.908543 115.27186 
L 187.596877 112.650569 
L 189.064978 109.957328 
L 190.285913 107.254681 
L 191.28491 104.502159 
L 192.045495 101.763682 
L 192.586191 98.996245 
L 192.904953 96.209449 
L 193.000494 93.412977 
L 192.872288 90.616564 
L 192.520581 87.82996 
L 191.946388 85.0629 
L 191.151495 82.325071 
L 190.138454 79.62608 
L 188.884384 76.923989 
L 187.411297 74.282044 
L 185.724318 71.709953 
L 183.790921 69.170093 
L 181.648553 66.722393 
L 179.259014 64.333048 
L 176.669926 62.058736 
L 173.838108 59.870019 
L 170.821045 57.819295 
L 167.571396 55.881976 
L 164.155996 54.105132 
L 160.52427 52.469425 
L 156.751667 51.015556 
L 152.854778 49.750219 
L 148.7797 48.662257 
L 144.612408 47.780837 
L 140.372044 47.110272 
L 136.078137 46.653902 
L 131.750508 46.414067 
L 127.334327 46.393633 
L 122.925152 46.598953 
L 118.618073 47.020081 
L 114.358272 47.656834 
L 110.165587 48.506406 
L 106.059565 49.564981 
L 102.059365 50.827745 
L 98.249326 52.262076 
L 94.576713 53.881651 
L 91.118401 55.646206 
L 87.823775 57.574946 
L 84.761175 59.62097 
L 81.883126 61.808733 
L 79.248603 64.085743 
L 76.814202 66.481326 
L 74.628935 68.938475 
L 72.654304 71.490922 
L 70.928978 74.078214 
L 69.420082 76.73795 
L 68.13314 79.460155 
L 67.091058 82.180843 
L 66.270578 84.94201 
L 65.674489 87.733724 
L 65.304759 90.545957 
L 65.163126 93.313239 
L 65.240463 96.081023 
L 65.536308 98.8398 
L 66.06191 101.634662 
L 66.811476 104.40036 
L 67.782105 107.127069 
L 68.970104 109.805126 
L 70.400575 112.475789 
L 72.046848 115.07624 
L 73.940294 117.644605 
L 76.043841 120.120433 
L 78.394573 122.53813 
L 80.945219 124.84062 
L 83.737897 127.058053 
L 86.715526 129.137755 
L 89.924471 131.105146 
L 93.298436 132.912972 
L 96.887143 134.581527 
L 100.615883 136.069973 
L 104.536756 137.393171 
L 108.567656 138.517639 
L 112.690239 139.438538 
L 116.958663 140.162413 
L 121.282608 140.668456 
L 125.641868 140.954544 
L 130.016121 141.019571 
L 134.385011 140.863444 
L 138.728248 140.487084 
L 143.025688 139.892415 
L 147.257431 139.082355 
L 151.403898 138.0608 
L 155.378391 136.855108 
L 159.234208 135.455207 
L 162.954144 133.867434 
L 166.46147 132.130926 
L 169.806402 130.227417 
L 172.920532 128.202648 
L 175.851007 126.033086 
L 178.538549 123.770073 
L 181.026298 121.385197 
L 183.264711 118.934375 
L 185.292092 116.384785 
L 187.069036 113.795897 
L 188.628291 111.131014 
L 189.940814 108.45215 
L 191.033205 105.719322 
L 191.901386 102.942357 
L 192.531909 100.185571 
L 192.941245 97.405505 
L 193.127795 94.611812 
L 193.090725 91.81421 
L 192.829966 89.022445 
L 192.346217 86.246262 
L 191.640952 83.495373 
L 190.716412 80.779419 
L 189.551094 78.056068 
L 188.164939 75.388927 
L 186.562753 72.787785 
L 184.713254 70.21445 
L 182.651912 67.729488 
L 180.341648 65.298419 
L 177.828205 62.978744 
L 175.069383 60.740259 
L 172.120918 58.636364 
L 168.936293 56.641627 
L 165.580759 54.804293 
L 162.068449 53.132426 
L 158.347757 51.608243 
L 154.496364 50.270129 
L 150.460769 49.105916 
L 146.325888 48.146376 
L 142.110696 47.396183 
L 137.834588 46.859046 
L 133.517285 46.537682 
L 129.103874 46.433925 
L 124.689643 46.555934 
L 120.369974 46.895569 
L 116.090077 47.451619 
L 111.869874 48.221662 
L 107.729033 49.202259 
L 103.686871 50.388968 
L 99.82882 51.750782 
L 96.101697 53.300381 
L 92.522312 55.030852 
L 89.165227 56.899607 
L 85.980928 58.927371 
L 83.035073 61.065189 
L 80.281576 63.338938 
L 77.776421 65.694367 
L 75.477866 68.162096 
L 73.431685 70.683675 
L 71.601283 73.293975 
L 70.021908 75.931422 
L 68.6628 78.634585 
L 67.548566 81.339816 
L 66.654842 84.088767 
L 65.984686 86.871545 
L 65.540335 89.678149 
L 65.325271 92.443138 
L 65.329164 95.211825 
L 65.551809 97.974691 
L 65.99224 100.722256 
L 66.664056 103.49925 
L 67.558039 106.240661 
L 68.670772 108.936766 
L 70.026198 111.629202 
L 71.59941 114.254739 
L 73.384352 116.803772 
L 75.414423 119.313466 
L 77.649329 121.724539 
L 80.127975 124.070273 
L 82.800067 126.295057 
L 85.709311 128.427776 
L 88.853538 130.452303 
L 92.167997 132.3202 
L 95.701733 134.052644 
L 99.381372 135.607462 
L 103.190627 136.978078 
L 107.182401 138.177716 
L 111.272789 139.175488 
L 115.515704 139.97895 
L 119.821542 140.565613 
L 124.170165 140.932981 
L 128.541282 141.079573 
L 132.914539 141.004921 
L 137.269609 140.709575 
L 141.586284 140.195089 
L 145.844563 139.464017 
L 150.024738 138.519896 
L 154.039198 137.388474 
L 157.941575 136.060679 
L 161.714451 134.542534 
L 165.279794 132.871746 
L 168.68843 131.030994 
L 171.925657 129.028256 
L 174.925635 126.911287 
L 177.685759 124.696604 
L 180.250084 122.356571 
L 182.567277 119.946212 
L 184.676701 117.433397 
L 186.537043 114.876878 
L 188.182239 112.240552 
L 189.581249 109.585896 
L 190.76197 106.873412 
L 191.720012 104.11285 
L 192.439852 101.368263 
L 192.939372 98.596496 
L 193.216666 95.807168 
L 193.270589 93.009976 
L 193.10076 90.214656 
L 192.707569 87.43096 
L 192.092175 84.668615 
L 191.256508 81.937296 
L 190.203262 79.246588 
L 188.908933 76.554746 
L 187.396475 73.924834 
L 185.671157 71.36652 
L 183.699896 68.84245 
L 181.521033 66.412248 
L 179.095866 64.04242 
L 176.472862 61.78926 
L 173.608406 59.623682 
L 170.560767 57.597614 
L 167.28224 55.686856 
L 163.840364 53.937931 
L 160.184281 52.331915 
L 156.390048 50.908891 
L 152.474359 49.675415 
L 148.383149 48.62077 
L 144.202828 47.773417 
L 139.952606 47.137512 
L 135.652059 46.716229 
L 135.428617 46.700321 
L 135.428617 46.700321 
" clip-path="url(#pd3b84302aa)" style="fill: none; stroke: #2ca02c; stroke-width: 0.4; stroke-linecap: square"/>
   </g>
   <g id="line2d_14">
    <path d="M 166.063081 35.043103 
L 161.391019 33.567661 
L 156.609476 32.292022 
L 151.73429 31.220762 
L 146.718557 30.348179 
L 141.640586 29.692424 
L 136.517804 29.255992 
L 131.367838 29.040591 
L 126.20844 29.047134 
L 121.057419 29.275728 
L 115.932575 29.725677 
L 110.851619 30.395482 
L 105.832112 31.282843 
L 100.952593 32.369591 
L 96.166315 33.661764 
L 91.489349 35.154921 
L 86.994139 36.821338 
L 82.635405 38.673063 
L 78.48023 40.676723 
L 74.484926 42.848327 
L 70.710508 45.14947 
L 67.115501 47.599961 
L 63.754279 50.157013 
L 60.588161 52.844014 
L 57.664429 55.614468 
L 54.947736 58.495075 
L 52.477948 61.436306 
L 50.223528 64.467864 
L 48.216724 67.537855 
L 46.430226 70.678644 
L 44.888566 73.836627 
L 43.569014 77.046456 
L 42.48839 80.253445 
L 41.628824 83.494145 
L 40.991994 86.760183 
L 40.57899 90.043166 
L 40.390316 93.334695 
L 40.425897 96.626392 
L 40.685084 99.909919 
L 41.166661 103.177003 
L 41.868854 106.419451 
L 42.789339 109.629179 
L 43.943031 112.843161 
L 45.314822 116.007126 
L 46.924482 119.156379 
L 48.749441 122.237843 
L 50.814079 125.284778 
L 53.088453 128.245886 
L 55.601253 131.152024 
L 58.353356 133.991377 
L 61.303953 136.71625 
L 64.487386 139.353099 
L 67.90152 141.889532 
L 71.495237 144.282826 
L 75.307481 146.554369 
L 79.332809 148.691597 
L 83.510681 150.658112 
L 87.883415 152.469693 
L 92.385025 154.094957 
L 97.05948 155.545807 
L 101.836045 156.796375 
L 106.759718 157.854562 
L 111.755801 158.700464 
L 116.807775 159.331549 
L 121.961243 159.749676 
L 127.137534 159.94461 
L 132.319235 159.915855 
L 137.488934 159.663632 
L 142.629273 159.188877 
L 147.723 158.493231 
L 152.692858 157.591346 
L 157.58423 156.479083 
L 162.381059 155.16003 
L 167.01114 153.658179 
L 171.518678 151.963373 
L 175.836071 150.105262 
L 180.00611 148.069739 
L 183.966501 145.89161 
L 187.758008 143.552981 
L 191.324265 141.093279 
L 194.661334 138.525266 
L 197.806052 135.825621 
L 200.71202 133.039452 
L 203.378527 130.179112 
L 205.837313 127.216471 
L 208.052644 124.200938 
L 210.026681 121.144093 
L 211.785097 118.013726 
L 213.303201 114.862187 
L 214.602144 111.655107 
L 215.664652 108.446183 
L 216.507091 105.199259 
L 217.126804 101.922492 
L 217.517688 98.670721 
L 217.68853 95.405997 
L 217.638368 92.136409 
L 217.36678 88.870096 
L 216.873895 85.61523 
L 216.160391 82.379996 
L 215.227504 79.172571 
L 214.059028 75.956097 
L 212.669163 72.785067 
L 211.060965 69.667857 
L 209.210889 66.570195 
L 207.144449 63.544895 
L 204.833578 60.560015 
L 202.311342 57.666617 
L 199.545502 54.835458 
L 196.576582 52.115215 
L 193.368589 49.47969 
L 189.969307 46.974527 
L 186.339472 44.576876 
L 182.533821 42.328692 
L 178.510357 40.210742 
L 174.330342 38.260635 
L 169.949635 36.462973 
L 165.435471 34.850378 
L 160.742197 33.41145 
L 155.942339 32.173211 
L 151.051809 31.140106 
L 146.023626 30.306799 
L 140.936364 29.690819 
L 135.807489 29.294519 
L 130.654653 29.119463 
L 125.495622 29.166417 
L 120.348207 29.435344 
L 115.230193 29.925401 
L 110.15927 30.634943 
L 105.152959 31.561527 
L 100.289525 32.686365 
L 95.522309 34.015856 
L 90.86731 35.545429 
L 86.39656 37.246791 
L 82.064948 39.132341 
L 77.939063 41.168183 
L 73.975444 43.370664 
L 70.234541 45.700908 
L 66.67516 48.179043 
L 63.351046 50.761867 
L 60.223853 53.473064 
L 57.340183 56.265781 
L 54.665068 59.166991 
L 52.237657 62.126865 
L 50.055629 65.13303 
L 48.089854 68.216975 
L 46.345253 71.370093 
L 44.845641 74.538617 
L 43.568745 77.75736 
L 42.53066 80.971531 
L 41.713999 84.217803 
L 41.120325 87.4878 
L 40.750617 90.773124 
L 40.605267 94.065378 
L 40.684089 97.356189 
L 40.986325 100.637231 
L 41.51065 103.900243 
L 42.255184 107.137053 
L 43.232812 110.385059 
L 44.431396 113.589528 
L 45.847291 116.742334 
L 47.500761 119.878625 
L 49.368499 122.945512 
L 51.475351 125.976066 
L 53.790666 128.91923 
L 56.343563 131.805641 
L 59.13476 134.623483 
L 62.122796 137.325382 
L 65.342379 139.937531 
L 68.791211 142.44756 
L 72.417593 144.813143 
L 76.260768 147.055369 
L 80.315126 149.161717 
L 84.51964 151.096257 
L 88.916845 152.874441 
L 93.440338 154.46539 
L 98.134255 155.88067 
L 102.92752 157.094949 
L 107.865237 158.115784 
L 112.872451 158.923833 
L 117.932612 159.516685 
L 123.091349 159.895849 
L 128.269864 160.051679 
L 133.450737 159.983807 
L 138.616563 159.692578 
L 143.75 159.179051 
L 148.833817 158.444994 
L 153.790962 157.505635 
L 158.666758 156.356485 
L 163.44519 155.001249 
L 168.054387 153.464459 
L 172.538406 151.735621 
L 176.830047 149.844891 
L 180.971904 147.777834 
L 184.902156 145.569727 
L 188.661312 143.202364 
L 192.193545 140.715599 
L 195.495087 138.122223 
L 198.602447 135.398637 
L 201.46984 132.5903 
L 204.096723 129.709575 
L 206.51444 126.728089 
L 208.687936 123.69553 
L 210.619527 120.623463 
L 212.334436 117.479483 
L 213.808695 114.316135 
L 215.062972 111.098889 
L 216.080739 107.881584 
L 216.877853 104.627937 
L 217.451769 101.346131 
L 217.797149 98.09106 
L 217.922247 94.824708 
L 217.826211 91.555177 
L 217.508736 88.290613 
L 216.97006 85.039194 
L 216.210978 81.809102 
L 215.23284 78.608512 
L 214.018919 75.400691 
L 212.584186 72.240032 
L 210.931815 69.134891 
L 209.037776 66.051182 
L 206.928336 63.041529 
L 204.574974 60.074208 
L 202.011485 57.200035 
L 199.205217 54.390016 
L 196.197393 51.692524 
L 192.95165 49.081639 
L 189.516431 46.602641 
L 185.85215 44.232988 
L 182.014153 42.014211 
L 177.960173 39.927406 
L 173.752021 38.009709 
L 169.34534 36.246064 
L 168.135979 35.802804 
L 168.135979 35.802804 
" clip-path="url(#pd3b84302aa)" style="fill: none; stroke: #d62728; stroke-width: 0.4; stroke-linecap: square"/>
   </g>
   <g id="patch_3">
    <path d="M 31.5 166.608 
L 31.5 22.464 
" style="fill: none; stroke: #000000; stroke-width: 0.8; stroke-linejoin: miter; stroke-linecap: square"/>
   </g>
   <g id="patch_4">
    <path d="M 226.8 166.608 
L 226.8 22.464 
" style="fill: none; stroke: #000000; stroke-width: 0.8; stroke-linejoin: miter; stroke-linecap: square"/>
   </g>
   <g id="patch_5">
    <path d="M 31.5 166.608 
L 226.8 166.608 
" style="fill: none; stroke: #000000; stroke-width: 0.8; stroke-linejoin: miter; stroke-linecap: square"/>
   </g>
   <g id="patch_6">
    <path d="M 31.5 22.464 
L 226.8 22.464 
" style="fill: none; stroke: #000000; stroke-width: 0.8; stroke-linejoin: miter; stroke-linecap: square"/>
   </g>
   <g id="legend_1">
    <g id="patch_7">
     <path d="M 38.5 89.1765 
L 111.032813 89.1765 
Q 113.032813 89.1765 113.032813 87.1765 
L 113.032813 29.464 
Q 113.032813 27.464 111.032813 27.464 
L 38.5 27.464 
Q 36.5 27.464 36.5 29.464 
L 36.5 87.1765 
Q 36.5 89.1765 38.5 89.1765 
z
" style="fill: #ffffff; opacity: 0.8; stroke: #cccccc; stroke-linejoin: miter"/>
    </g>
    <g id="line2d_15">
     <path d="M 40.5 35.562438 
L 50.5 35.562438 
L 60.5 35.562438 
" style="fill: none; stroke: #1f77b4; stroke-width: 0.4; stroke-linecap: square"/>
    </g>
    <g id="text_13">
     <!-- Sun -->
     <g transform="translate(68.5 39.062438) scale(0.1 -0.1)">
      <defs>
       <path id="DejaVuSans-53" d="M 3425 4513 
L 3425 3897 
Q 3066 4069 2747 4153 
Q 2428 4238 2131 4238 
Q 1616 4238 1336 4038 
Q 1056 3838 1056 3469 
Q 1056 3159 1242 3001 
Q 1428 2844 1947 2747 
L 2328 2669 
Q 3034 2534 3370 2195 
Q 3706 1856 3706 1288 
Q 3706 609 3251 259 
Q 2797 -91 1919 -91 
Q 1588 -91 1214 -16 
Q 841 59 441 206 
L 441 856 
Q 825 641 1194 531 
Q 1563 422 1919 422 
Q 2459 422 2753 634 
Q 3047 847 3047 1241 
Q 3047 1584 2836 1778 
Q 2625 1972 2144 2069 
L 1759 2144 
Q 1053 2284 737 2584 
Q 422 2884 422 3419 
Q 422 4038 858 4394 
Q 1294 4750 2059 4750 
Q 2388 4750 2728 4690 
Q 3069 4631 3425 4513 
z
" transform="scale(0.015625)"/>
       <path id="DejaVuSans-75" d="M 544 1381 
L 544 3500 
L 1119 3500 
L 1119 1403 
Q 1119 906 1312 657 
Q 1506 409 1894 409 
Q 2359 409 2629 706 
Q 2900 1003 2900 1516 
L 2900 3500 
L 3475 3500 
L 3475 0 
L 2900 0 
L 2900 538 
Q 2691 219 2414 64 
Q 2138 -91 1772 -91 
Q 1169 -91 856 284 
Q 544 659 544 1381 
z
M 1991 3584 
L 1991 3584 
z
" transform="scale(0.015625)"/>
       <path id="DejaVuSans-6e" d="M 3513 2113 
L 3513 0 
L 2938 0 
L 2938 2094 
Q 2938 2591 2744 2837 
Q 2550 3084 2163 3084 
Q 1697 3084 1428 2787 
Q 1159 2491 1159 1978 
L 1159 0 
L 581 0 
L 581 3500 
L 1159 3500 
L 1159 2956 
Q 1366 3272 1645 3428 
Q 1925 3584 2291 3584 
Q 2894 3584 3203 3211 
Q 3513 2838 3513 2113 
z
" transform="scale(0.015625)"/>
      </defs>
      <use xlink:href="#DejaVuSans-53"/>
      <use xlink:href="#DejaVuSans-75" x="63.476562"/>
      <use xlink:href="#DejaVuSans-6e" x="126.855469"/>
     </g>
    </g>
    <g id="line2d_16">
     <path d="M 40.5 50.240563 
L 50.5 50.240563 
L 60.5 50.240563 
" style="fill: none; stroke: #ff7f0e; stroke-width: 0.4; stroke-linecap: square"/>
    </g>
    <g id="text_14">
     <!-- Mercury -->
     <g transform="translate(68.5 53.740563) scale(0.1 -0.1)">
      <defs>
       <path id="DejaVuSans-4d" d="M 628 4666 
L 1569 4666 
L 2759 1491 
L 3956 4666 
L 4897 4666 
L 4897 0 
L 4281 0 
L 4281 4097 
L 3078 897 
L 2444 897 
L 1241 4097 
L 1241 0 
L 628 0 
L 628 4666 
z
" transform="scale(0.015625)"/>
       <path id="DejaVuSans-65" d="M 3597 1894 
L 3597 1613 
L 953 1613 
Q 991 1019 1311 708 
Q 1631 397 2203 397 
Q 2534 397 2845 478 
Q 3156 559 3463 722 
L 3463 178 
Q 3153 47 2828 -22 
Q 2503 -91 2169 -91 
Q 1331 -91 842 396 
Q 353 884 353 1716 
Q 353 2575 817 3079 
Q 1281 3584 2069 3584 
Q 2775 3584 3186 3129 
Q 3597 2675 3597 1894 
z
M 3022 2063 
Q 3016 2534 2758 2815 
Q 2500 3097 2075 3097 
Q 1594 3097 1305 2825 
Q 1016 2553 972 2059 
L 3022 2063 
z
" transform="scale(0.015625)"/>
       <path id="DejaVuSans-72" d="M 2631 2963 
Q 2534 3019 2420 3045 
Q 2306 3072 2169 3072 
Q 1681 3072 1420 2755 
Q 1159 2438 1159 1844 
L 1159 0 
L 581 0 
L 581 3500 
L 1159 3500 
L 1159 2956 
Q 1341 3275 1631 3429 
Q 1922 3584 2338 3584 
Q 2397 3584 2469 3576 
Q 2541 3569 2628 3553 
L 2631 2963 
z
" transform="scale(0.015625)"/>
       <path id="DejaVuSans-63" d="M 3122 3366 
L 3122 2828 
Q 2878 2963 2633 3030 
Q 2388 3097 2138 3097 
Q 1578 3097 1268 2742 
Q 959 2388 959 1747 
Q 959 1106 1268 751 
Q 1578 397 2138 397 
Q 2388 397 2633 464 
Q 2878 531 3122 666 
L 3122 134 
Q 2881 22 2623 -34 
Q 2366 -91 2075 -91 
Q 1284 -91 818 406 
Q 353 903 353 1747 
Q 353 2603 823 3093 
Q 1294 3584 2113 3584 
Q 2378 3584 2631 3529 
Q 2884 3475 3122 3366 
z
" transform="scale(0.015625)"/>
       <path id="DejaVuSans-79" d="M 2059 -325 
Q 1816 -950 1584 -1140 
Q 1353 -1331 966 -1331 
L 506 -1331 
L 506 -850 
L 844 -850 
Q 1081 -850 1212 -737 
Q 1344 -625 1503 -206 
L 1606 56 
L 191 3500 
L 800 3500 
L 1894 763 
L 2988 3500 
L 3597 3500 
L 2059 -325 
z
" transform="scale(0.015625)"/>
      </defs>
      <use xlink:href="#DejaVuSans-4d"/>
      <use xlink:href="#DejaVuSans-65" x="86.279297"/>
      <use xlink:href="#DejaVuSans-72" x="147.802734"/>
      <use xlink:href="#DejaVuSans-63" x="186.666016"/>
      <use xlink:href="#DejaVuSans-75" x="241.646484"/>
      <use xlink:href="#DejaVuSans-72" x="305.025391"/>
      <use xlink:href="#DejaVuSans-79" x="346.138672"/>
     </g>
    </g>
    <g id="line2d_17">
     <path d="M 40.5 64.918688 
L 50.5 64.918688 
L 60.5 64.918688 
" style="fill: none; stroke: #2ca02c; stroke-width: 0.4; stroke-linecap: square"/>
    </g>
    <g id="text_15">
     <!-- Venus -->
     <g transform="translate(68.5 68.418688) scale(0.1 -0.1)">
      <defs>
       <path id="DejaVuSans-56" d="M 1831 0 
L 50 4666 
L 709 4666 
L 2188 738 
L 3669 4666 
L 4325 4666 
L 2547 0 
L 1831 0 
z
" transform="scale(0.015625)"/>
       <path id="DejaVuSans-73" d="M 2834 3397 
L 2834 2853 
Q 2591 2978 2328 3040 
Q 2066 3103 1784 3103 
Q 1356 3103 1142 2972 
Q 928 2841 928 2578 
Q 928 2378 1081 2264 
Q 1234 2150 1697 2047 
L 1894 2003 
Q 2506 1872 2764 1633 
Q 3022 1394 3022 966 
Q 3022 478 2636 193 
Q 2250 -91 1575 -91 
Q 1294 -91 989 -36 
Q 684 19 347 128 
L 347 722 
Q 666 556 975 473 
Q 1284 391 1588 391 
Q 1994 391 2212 530 
Q 2431 669 2431 922 
Q 2431 1156 2273 1281 
Q 2116 1406 1581 1522 
L 1381 1569 
Q 847 1681 609 1914 
Q 372 2147 372 2553 
Q 372 3047 722 3315 
Q 1072 3584 1716 3584 
Q 2034 3584 2315 3537 
Q 2597 3491 2834 3397 
z
" transform="scale(0.015625)"/>
      </defs>
      <use xlink:href="#DejaVuSans-56"/>
      <use xlink:href="#DejaVuSans-65" x="60.658203"/>
      <use xlink:href="#DejaVuSans-6e" x="122.181641"/>
      <use xlink:href="#DejaVuSans-75" x="185.560547"/>
      <use xlink:href="#DejaVuSans-73" x="248.939453"/>
     </g>
    </g>
    <g id="line2d_18">
     <path d="M 40.5 79.596813 
L 50.5 79.596813 
L 60.5 79.596813 
" style="fill: none; stroke: #d62728; stroke-width: 0.4; stroke-linecap: square"/>
    </g>
    <g id="text_16">
     <!-- Earth -->
     <g transform="translate(68.5 83.096813) scale(0.1 -0.1)">
      <defs>
       <path id="DejaVuSans-45" d="M 628 4666 
L 3578 4666 
L 3578 4134 
L 1259 4134 
L 1259 2753 
L 3481 2753 
L 3481 2222 
L 1259 2222 
L 1259 531 
L 3634 531 
L 3634 0 
L 628 0 
L 628 4666 
z
" transform="scale(0.015625)"/>
       <path id="DejaVuSans-61" d="M 2194 1759 
Q 1497 1759 1228 1600 
Q 959 1441 959 1056 
Q 959 750 1161 570 
Q 1363 391 1709 391 
Q 2188 391 2477 730 
Q 2766 1069 2766 1631 
L 2766 1759 
L 2194 1759 
z
M 3341 1997 
L 3341 0 
L 2766 0 
L 2766 531 
Q 2569 213 2275 61 
Q 1981 -91 1556 -91 
Q 1019 -91 701 211 
Q 384 513 384 1019 
Q 384 1609 779 1909 
Q 1175 2209 1959 2209 
L 2766 2209 
L 2766 2266 
Q 2766 2663 2505 2880 
Q 2244 3097 1772 3097 
Q 1472 3097 1187 3025 
Q 903 2953 641 2809 
L 641 3341 
Q 956 3463 1253 3523 
Q 1550 3584 1831 3584 
Q 2591 3584 2966 3190 
Q 3341 2797 3341 1997 
z
" transform="scale(0.015625)"/>
       <path id="DejaVuSans-74" d="M 1172 4494 
L 1172 3500 
L 2356 3500 
L 2356 3053 
L 1172 3053 
L 1172 1153 
Q 1172 725 1289 603 
Q 1406 481 1766 481 
L 2356 481 
L 2356 0 
L 1766 0 
Q 1100 0 847 248 
Q 594 497 594 1153 
L 594 3053 
L 172 3053 
L 172 3500 
L 594 3500 
L 594 4494 
L 1172 4494 
z
" transform="scale(0.015625)"/>
       <path id="DejaVuSans-68" d="M 3513 2113 
L 3513 0 
L 2938 0 
L 2938 2094 
Q 2938 2591 2744 2837 
Q 2550 3084 2163 3084 
Q 1697 3084 1428 2787 
Q 1159 2491 1159 1978 
L 1159 0 
L 581 0 
L 581 4863 
L 1159 4863 
L 1159 2956 
Q 1366 3272 1645 3428 
Q 1925 3584 2291 3584 
Q 2894 3584 3203 3211 
Q 3513 2838 3513 2113 
z
" transform="scale(0.015625)"/>
      </defs>
      <use xlink:href="#DejaVuSans-45"/>
      <use xlink:href="#DejaVuSans-61" x="63.183594"/>
      <use xlink:href="#DejaVuSans-72" x="124.462891"/>
      <use xlink:href="#DejaVuSans-74" x="165.576172"/>
      <use xlink:href="#DejaVuSans-68" x="204.785156"/>
     </g>
    </g>
   </g>
  </g>
 </g>
 <defs>
  <clipPath id="pd3b84302aa">
   <rect x="31.5" y="22.464" width="195.3" height="144.144"/>
  </clipPath>
 </defs>
</svg>
