<?xml version="1.0" encoding="utf-8" standalone="no"?>
<!DOCTYPE svg PUBLIC "-//W3C//DTD SVG 1.1//EN"
  "http://www.w3.org/Graphics/SVG/1.1/DTD/svg11.dtd">
<svg xmlns:xlink="http://www.w3.org/1999/xlink" width="252pt" height="187.2pt" viewBox="0 0 252 187.2" xmlns="http://www.w3.org/2000/svg" version="1.1">
 <metadata>
  <rdf:RDF xmlns:dc="http://purl.org/dc/elements/1.1/" xmlns:cc="http://creativecommons.org/ns#" xmlns:rdf="http://www.w3.org/1999/02/22-rdf-syntax-ns#">
   <cc:Work>
    <dc:type rdf:resource="http://purl.org/dc/dcmitype/StillImage"/>
    <dc:date>2024-12-03T17:52:54.679759</dc:date>
    <dc:format>image/svg+xml</dc:format>
    <dc:creator>
     <cc:Agent>
      <dc:title>Matplotlib v3.7.2, https://matplotlib.org/</dc:title>
     </cc:Agent>
    </dc:creator>
   </cc:Work>
  </rdf:RDF>
 </metadata>
 <defs>
  <style type="text/css">*{stroke-linejoin: round; stroke-linecap: butt}</style>
 </defs>
 <g id="figure_1">
  <g id="patch_1">
   <path d="M 0 187.2 
L 252 187.2 
L 252 0 
L 0 0 
z
" style="fill: #ffffff"/>
  </g>
  <g id="axes_1">
   <g id="patch_2">
    <path d="M 31.5 166.608 
L 226.8 166.608 
L 226.8 22.464 
L 31.5 22.464 
z
" style="fill: #ffffff"/>
   </g>
   <g id="matplotlib.axis_1">
    <g id="xtick_1">
     <g id="line2d_1">
      <defs>
       <path id="mf729c8bbe3" d="M 0 0 
L 0 3.5 
" style="stroke: #000000; stroke-width: 0.8"/>
      </defs>
      <g>
       <use xlink:href="#mf729c8bbe3" x="40.377273" y="166.608" style="stroke: #000000; stroke-width: 0.8"/>
      </g>
     </g>
     <g id="text_1">
      <!-- 0 -->
      <g transform="translate(37.196023 181.206438) scale(0.1 -0.1)">
       <defs>
        <path id="DejaVuSans-30" d="M 2034 4250 
Q 1547 4250 1301 3770 
Q 1056 3291 1056 2328 
Q 1056 1369 1301 889 
Q 1547 409 2034 409 
Q 2525 409 2770 889 
Q 3016 1369 3016 2328 
Q 3016 3291 2770 3770 
Q 2525 4250 2034 4250 
z
M 2034 4750 
Q 2819 4750 3233 4129 
Q 3647 3509 3647 2328 
Q 3647 1150 3233 529 
Q 2819 -91 2034 -91 
Q 1250 -91 836 529 
Q 422 1150 422 2328 
Q 422 3509 836 4129 
Q 1250 4750 2034 4750 
z
" transform="scale(0.015625)"/>
       </defs>
       <use xlink:href="#DejaVuSans-30"/>
      </g>
     </g>
    </g>
    <g id="xtick_2">
     <g id="line2d_2">
      <g>
       <use xlink:href="#mf729c8bbe3" x="96.679781" y="166.608" style="stroke: #000000; stroke-width: 0.8"/>
      </g>
     </g>
     <g id="text_2">
      <!-- 2 -->
      <g transform="translate(93.498531 181.206438) scale(0.1 -0.1)">
       <defs>
        <path id="DejaVuSans-32" d="M 1228 531 
L 3431 531 
L 3431 0 
L 469 0 
L 469 531 
Q 828 903 1448 1529 
Q 2069 2156 2228 2338 
Q 2531 2678 2651 2914 
Q 2772 3150 2772 3378 
Q 2772 3750 2511 3984 
Q 2250 4219 1831 4219 
Q 1534 4219 1204 4116 
Q 875 4013 500 3803 
L 500 4441 
Q 881 4594 1212 4672 
Q 1544 4750 1819 4750 
Q 2544 4750 2975 4387 
Q 3406 4025 3406 3419 
Q 3406 3131 3298 2873 
Q 3191 2616 2906 2266 
Q 2828 2175 2409 1742 
Q 1991 1309 1228 531 
z
" transform="scale(0.015625)"/>
       </defs>
       <use xlink:href="#DejaVuSans-32"/>
      </g>
     </g>
    </g>
    <g id="xtick_3">
     <g id="line2d_3">
      <g>
       <use xlink:href="#mf729c8bbe3" x="152.982289" y="166.608" style="stroke: #000000; stroke-width: 0.8"/>
      </g>
     </g>
     <g id="text_3">
      <!-- 4 -->
      <g transform="translate(149.801039 181.206438) scale(0.1 -0.1)">
       <defs>
        <path id="DejaVuSans-34" d="M 2419 4116 
L 825 1625 
L 2419 1625 
L 2419 4116 
z
M 2253 4666 
L 3047 4666 
L 3047 1625 
L 3713 1625 
L 3713 1100 
L 3047 1100 
L 3047 0 
L 2419 0 
L 2419 1100 
L 313 1100 
L 313 1709 
L 2253 4666 
z
" transform="scale(0.015625)"/>
       </defs>
       <use xlink:href="#DejaVuSans-34"/>
      </g>
     </g>
    </g>
    <g id="xtick_4">
     <g id="line2d_4">
      <g>
       <use xlink:href="#mf729c8bbe3" x="209.284797" y="166.608" style="stroke: #000000; stroke-width: 0.8"/>
      </g>
     </g>
     <g id="text_4">
      <!-- 6 -->
      <g transform="translate(206.103547 181.206438) scale(0.1 -0.1)">
       <defs>
        <path id="DejaVuSans-36" d="M 2113 2584 
Q 1688 2584 1439 2293 
Q 1191 2003 1191 1497 
Q 1191 994 1439 701 
Q 1688 409 2113 409 
Q 2538 409 2786 701 
Q 3034 994 3034 1497 
Q 3034 2003 2786 2293 
Q 2538 2584 2113 2584 
z
M 3366 4563 
L 3366 3988 
Q 3128 4100 2886 4159 
Q 2644 4219 2406 4219 
Q 1781 4219 1451 3797 
Q 1122 3375 1075 2522 
Q 1259 2794 1537 2939 
Q 1816 3084 2150 3084 
Q 2853 3084 3261 2657 
Q 3669 2231 3669 1497 
Q 3669 778 3244 343 
Q 2819 -91 2113 -91 
Q 1303 -91 875 529 
Q 447 1150 447 2328 
Q 447 3434 972 4092 
Q 1497 4750 2381 4750 
Q 2619 4750 2861 4703 
Q 3103 4656 3366 4563 
z
" transform="scale(0.015625)"/>
       </defs>
       <use xlink:href="#DejaVuSans-36"/>
      </g>
     </g>
    </g>
    <g id="text_5">
     <!-- $t$ (s) -->
     <g transform="translate(119.05 194.884563) scale(0.1 -0.1)">
      <defs>
       <path id="DejaVuSans-Oblique-74" d="M 2706 3500 
L 2619 3053 
L 1472 3053 
L 1100 1153 
Q 1081 1047 1072 975 
Q 1063 903 1063 863 
Q 1063 663 1183 572 
Q 1303 481 1569 481 
L 2150 481 
L 2053 0 
L 1503 0 
Q 991 0 739 200 
Q 488 400 488 806 
Q 488 878 497 964 
Q 506 1050 525 1153 
L 897 3053 
L 409 3053 
L 500 3500 
L 978 3500 
L 1172 4494 
L 1747 4494 
L 1556 3500 
L 2706 3500 
z
" transform="scale(0.015625)"/>
       <path id="DejaVuSans-20" transform="scale(0.015625)"/>
       <path id="DejaVuSans-28" d="M 1984 4856 
Q 1566 4138 1362 3434 
Q 1159 2731 1159 2009 
Q 1159 1288 1364 580 
Q 1569 -128 1984 -844 
L 1484 -844 
Q 1016 -109 783 600 
Q 550 1309 550 2009 
Q 550 2706 781 3412 
Q 1013 4119 1484 4856 
L 1984 4856 
z
" transform="scale(0.015625)"/>
       <path id="DejaVuSans-73" d="M 2834 3397 
L 2834 2853 
Q 2591 2978 2328 3040 
Q 2066 3103 1784 3103 
Q 1356 3103 1142 2972 
Q 928 2841 928 2578 
Q 928 2378 1081 2264 
Q 1234 2150 1697 2047 
L 1894 2003 
Q 2506 1872 2764 1633 
Q 3022 1394 3022 966 
Q 3022 478 2636 193 
Q 2250 -91 1575 -91 
Q 1294 -91 989 -36 
Q 684 19 347 128 
L 347 722 
Q 666 556 975 473 
Q 1284 391 1588 391 
Q 1994 391 2212 530 
Q 2431 669 2431 922 
Q 2431 1156 2273 1281 
Q 2116 1406 1581 1522 
L 1381 1569 
Q 847 1681 609 1914 
Q 372 2147 372 2553 
Q 372 3047 722 3315 
Q 1072 3584 1716 3584 
Q 2034 3584 2315 3537 
Q 2597 3491 2834 3397 
z
" transform="scale(0.015625)"/>
       <path id="DejaVuSans-29" d="M 513 4856 
L 1013 4856 
Q 1481 4119 1714 3412 
Q 1947 2706 1947 2009 
Q 1947 1309 1714 600 
Q 1481 -109 1013 -844 
L 513 -844 
Q 928 -128 1133 580 
Q 1338 1288 1338 2009 
Q 1338 2731 1133 3434 
Q 928 4138 513 4856 
z
" transform="scale(0.015625)"/>
      </defs>
      <use xlink:href="#DejaVuSans-Oblique-74" transform="translate(0 0.125)"/>
      <use xlink:href="#DejaVuSans-20" transform="translate(39.208984 0.125)"/>
      <use xlink:href="#DejaVuSans-28" transform="translate(70.996094 0.125)"/>
      <use xlink:href="#DejaVuSans-73" transform="translate(110.009766 0.125)"/>
      <use xlink:href="#DejaVuSans-29" transform="translate(162.109375 0.125)"/>
     </g>
    </g>
    <g id="text_6">
     <!-- 1e7 -->
     <g transform="translate(207.921875 193.884563) scale(0.1 -0.1)">
      <defs>
       <path id="DejaVuSans-31" d="M 794 531 
L 1825 531 
L 1825 4091 
L 703 3866 
L 703 4441 
L 1819 4666 
L 2450 4666 
L 2450 531 
L 3481 531 
L 3481 0 
L 794 0 
L 794 531 
z
" transform="scale(0.015625)"/>
       <path id="DejaVuSans-65" d="M 3597 1894 
L 3597 1613 
L 953 1613 
Q 991 1019 1311 708 
Q 1631 397 2203 397 
Q 2534 397 2845 478 
Q 3156 559 3463 722 
L 3463 178 
Q 3153 47 2828 -22 
Q 2503 -91 2169 -91 
Q 1331 -91 842 396 
Q 353 884 353 1716 
Q 353 2575 817 3079 
Q 1281 3584 2069 3584 
Q 2775 3584 3186 3129 
Q 3597 2675 3597 1894 
z
M 3022 2063 
Q 3016 2534 2758 2815 
Q 2500 3097 2075 3097 
Q 1594 3097 1305 2825 
Q 1016 2553 972 2059 
L 3022 2063 
z
" transform="scale(0.015625)"/>
       <path id="DejaVuSans-37" d="M 525 4666 
L 3525 4666 
L 3525 4397 
L 1831 0 
L 1172 0 
L 2766 4134 
L 525 4134 
L 525 4666 
z
" transform="scale(0.015625)"/>
      </defs>
      <use xlink:href="#DejaVuSans-31"/>
      <use xlink:href="#DejaVuSans-65" x="63.623047"/>
      <use xlink:href="#DejaVuSans-37" x="125.146484"/>
     </g>
    </g>
   </g>
   <g id="matplotlib.axis_2">
    <g id="ytick_1">
     <g id="line2d_5">
      <defs>
       <path id="m22232d96c6" d="M 0 0 
L -3.5 0 
" style="stroke: #000000; stroke-width: 0.8"/>
      </defs>
      <g>
       <use xlink:href="#m22232d96c6" x="31.5" y="153.617773" style="stroke: #000000; stroke-width: 0.8"/>
      </g>
     </g>
     <g id="text_7">
      <!-- −6.0 -->
      <g transform="translate(0.217187 157.416991) scale(0.1 -0.1)">
       <defs>
        <path id="DejaVuSans-2212" d="M 678 2272 
L 4684 2272 
L 4684 1741 
L 678 1741 
L 678 2272 
z
" transform="scale(0.015625)"/>
        <path id="DejaVuSans-2e" d="M 684 794 
L 1344 794 
L 1344 0 
L 684 0 
L 684 794 
z
" transform="scale(0.015625)"/>
       </defs>
       <use xlink:href="#DejaVuSans-2212"/>
       <use xlink:href="#DejaVuSans-36" x="83.789062"/>
       <use xlink:href="#DejaVuSans-2e" x="147.412109"/>
       <use xlink:href="#DejaVuSans-30" x="179.199219"/>
      </g>
     </g>
    </g>
    <g id="ytick_2">
     <g id="line2d_6">
      <g>
       <use xlink:href="#m22232d96c6" x="31.5" y="125.991738" style="stroke: #000000; stroke-width: 0.8"/>
      </g>
     </g>
     <g id="text_8">
      <!-- −5.8 -->
      <g transform="translate(0.217187 129.790957) scale(0.1 -0.1)">
       <defs>
        <path id="DejaVuSans-35" d="M 691 4666 
L 3169 4666 
L 3169 4134 
L 1269 4134 
L 1269 2991 
Q 1406 3038 1543 3061 
Q 1681 3084 1819 3084 
Q 2600 3084 3056 2656 
Q 3513 2228 3513 1497 
Q 3513 744 3044 326 
Q 2575 -91 1722 -91 
Q 1428 -91 1123 -41 
Q 819 9 494 109 
L 494 744 
Q 775 591 1075 516 
Q 1375 441 1709 441 
Q 2250 441 2565 725 
Q 2881 1009 2881 1497 
Q 2881 1984 2565 2268 
Q 2250 2553 1709 2553 
Q 1456 2553 1204 2497 
Q 953 2441 691 2322 
L 691 4666 
z
" transform="scale(0.015625)"/>
        <path id="DejaVuSans-38" d="M 2034 2216 
Q 1584 2216 1326 1975 
Q 1069 1734 1069 1313 
Q 1069 891 1326 650 
Q 1584 409 2034 409 
Q 2484 409 2743 651 
Q 3003 894 3003 1313 
Q 3003 1734 2745 1975 
Q 2488 2216 2034 2216 
z
M 1403 2484 
Q 997 2584 770 2862 
Q 544 3141 544 3541 
Q 544 4100 942 4425 
Q 1341 4750 2034 4750 
Q 2731 4750 3128 4425 
Q 3525 4100 3525 3541 
Q 3525 3141 3298 2862 
Q 3072 2584 2669 2484 
Q 3125 2378 3379 2068 
Q 3634 1759 3634 1313 
Q 3634 634 3220 271 
Q 2806 -91 2034 -91 
Q 1263 -91 848 271 
Q 434 634 434 1313 
Q 434 1759 690 2068 
Q 947 2378 1403 2484 
z
M 1172 3481 
Q 1172 3119 1398 2916 
Q 1625 2713 2034 2713 
Q 2441 2713 2670 2916 
Q 2900 3119 2900 3481 
Q 2900 3844 2670 4047 
Q 2441 4250 2034 4250 
Q 1625 4250 1398 4047 
Q 1172 3844 1172 3481 
z
" transform="scale(0.015625)"/>
       </defs>
       <use xlink:href="#DejaVuSans-2212"/>
       <use xlink:href="#DejaVuSans-35" x="83.789062"/>
       <use xlink:href="#DejaVuSans-2e" x="147.412109"/>
       <use xlink:href="#DejaVuSans-38" x="179.199219"/>
      </g>
     </g>
    </g>
    <g id="ytick_3">
     <g id="line2d_7">
      <g>
       <use xlink:href="#m22232d96c6" x="31.5" y="98.365703" style="stroke: #000000; stroke-width: 0.8"/>
      </g>
     </g>
     <g id="text_9">
      <!-- −5.6 -->
      <g transform="translate(0.217187 102.164922) scale(0.1 -0.1)">
       <use xlink:href="#DejaVuSans-2212"/>
       <use xlink:href="#DejaVuSans-35" x="83.789062"/>
       <use xlink:href="#DejaVuSans-2e" x="147.412109"/>
       <use xlink:href="#DejaVuSans-36" x="179.199219"/>
      </g>
     </g>
    </g>
    <g id="ytick_4">
     <g id="line2d_8">
      <g>
       <use xlink:href="#m22232d96c6" x="31.5" y="70.739668" style="stroke: #000000; stroke-width: 0.8"/>
      </g>
     </g>
     <g id="text_10">
      <!-- −5.4 -->
      <g transform="translate(0.217187 74.538887) scale(0.1 -0.1)">
       <use xlink:href="#DejaVuSans-2212"/>
       <use xlink:href="#DejaVuSans-35" x="83.789062"/>
       <use xlink:href="#DejaVuSans-2e" x="147.412109"/>
       <use xlink:href="#DejaVuSans-34" x="179.199219"/>
      </g>
     </g>
    </g>
    <g id="ytick_5">
     <g id="line2d_9">
      <g>
       <use xlink:href="#m22232d96c6" x="31.5" y="43.113633" style="stroke: #000000; stroke-width: 0.8"/>
      </g>
     </g>
     <g id="text_11">
      <!-- −5.2 -->
      <g transform="translate(0.217187 46.912852) scale(0.1 -0.1)">
       <use xlink:href="#DejaVuSans-2212"/>
       <use xlink:href="#DejaVuSans-35" x="83.789062"/>
       <use xlink:href="#DejaVuSans-2e" x="147.412109"/>
       <use xlink:href="#DejaVuSans-32" x="179.199219"/>
      </g>
     </g>
    </g>
    <g id="text_12">
     <!-- $E$ (J) -->
     <g transform="translate(-5.882813 104.686) rotate(-90) scale(0.1 -0.1)">
      <defs>
       <path id="DejaVuSans-Oblique-45" d="M 1081 4666 
L 4031 4666 
L 3928 4134 
L 1606 4134 
L 1338 2753 
L 3566 2753 
L 3463 2222 
L 1234 2222 
L 909 531 
L 3284 531 
L 3181 0 
L 172 0 
L 1081 4666 
z
" transform="scale(0.015625)"/>
       <path id="DejaVuSans-4a" d="M 628 4666 
L 1259 4666 
L 1259 325 
Q 1259 -519 939 -900 
Q 619 -1281 -91 -1281 
L -331 -1281 
L -331 -750 
L -134 -750 
Q 284 -750 456 -515 
Q 628 -281 628 325 
L 628 4666 
z
" transform="scale(0.015625)"/>
      </defs>
      <use xlink:href="#DejaVuSans-Oblique-45" transform="translate(0 0.125)"/>
      <use xlink:href="#DejaVuSans-20" transform="translate(63.183594 0.125)"/>
      <use xlink:href="#DejaVuSans-28" transform="translate(94.970703 0.125)"/>
      <use xlink:href="#DejaVuSans-4a" transform="translate(133.984375 0.125)"/>
      <use xlink:href="#DejaVuSans-29" transform="translate(163.476562 0.125)"/>
     </g>
    </g>
    <g id="text_13">
     <!-- 1e27−5.81844e33 -->
     <g transform="translate(31.5 19.464) scale(0.1 -0.1)">
      <defs>
       <path id="DejaVuSans-33" d="M 2597 2516 
Q 3050 2419 3304 2112 
Q 3559 1806 3559 1356 
Q 3559 666 3084 287 
Q 2609 -91 1734 -91 
Q 1441 -91 1130 -33 
Q 819 25 488 141 
L 488 750 
Q 750 597 1062 519 
Q 1375 441 1716 441 
Q 2309 441 2620 675 
Q 2931 909 2931 1356 
Q 2931 1769 2642 2001 
Q 2353 2234 1838 2234 
L 1294 2234 
L 1294 2753 
L 1863 2753 
Q 2328 2753 2575 2939 
Q 2822 3125 2822 3475 
Q 2822 3834 2567 4026 
Q 2313 4219 1838 4219 
Q 1578 4219 1281 4162 
Q 984 4106 628 3988 
L 628 4550 
Q 988 4650 1302 4700 
Q 1616 4750 1894 4750 
Q 2613 4750 3031 4423 
Q 3450 4097 3450 3541 
Q 3450 3153 3228 2886 
Q 3006 2619 2597 2516 
z
" transform="scale(0.015625)"/>
      </defs>
      <use xlink:href="#DejaVuSans-31"/>
      <use xlink:href="#DejaVuSans-65" x="63.623047"/>
      <use xlink:href="#DejaVuSans-32" x="125.146484"/>
      <use xlink:href="#DejaVuSans-37" x="188.769531"/>
      <use xlink:href="#DejaVuSans-2212" x="252.392578"/>
      <use xlink:href="#DejaVuSans-35" x="336.181641"/>
      <use xlink:href="#DejaVuSans-2e" x="399.804688"/>
      <use xlink:href="#DejaVuSans-38" x="431.591797"/>
      <use xlink:href="#DejaVuSans-31" x="495.214844"/>
      <use xlink:href="#DejaVuSans-38" x="558.837891"/>
      <use xlink:href="#DejaVuSans-34" x="622.460938"/>
      <use xlink:href="#DejaVuSans-34" x="686.083984"/>
      <use xlink:href="#DejaVuSans-65" x="749.707031"/>
      <use xlink:href="#DejaVuSans-33" x="811.230469"/>
      <use xlink:href="#DejaVuSans-33" x="874.853516"/>
     </g>
    </g>
   </g>
   <g id="line2d_10">
    <path d="M 40.377273 96.332407 
L 42.292684 154.022277 
L 42.627121 157.500943 
L 42.789272 157.89035 
L 42.809541 157.877818 
L 42.910886 157.611354 
L 43.083171 156.389206 
L 43.356801 152.561445 
L 43.76218 143.26997 
L 44.461457 121.104161 
L 45.758666 80.552711 
L 46.498481 64.400154 
L 47.17749 54.12241 
L 47.836229 47.323939 
L 48.484834 42.79307 
L 49.133439 39.734432 
L 49.782044 37.674975 
L 50.440783 36.278766 
L 51.109657 35.355373 
L 51.788665 34.778623 
L 52.487942 34.465959 
L 53.217623 34.381901 
L 53.957438 34.520665 
L 54.697253 34.889301 
L 55.406664 35.495299 
L 56.085672 36.37551 
L 56.734277 37.593828 
L 57.362613 39.273724 
L 57.97068 41.572913 
L 58.568613 44.765203 
L 59.156411 49.191477 
L 59.744209 55.414185 
L 60.342142 64.255707 
L 60.970478 77.056839 
L 61.67989 96.412949 
L 63.767587 157.470096 
L 64.07162 159.910493 
L 64.172965 160.055139 
L 64.213502 160.017614 
L 64.335116 159.578895 
L 64.537805 157.781366 
L 64.841838 152.760172 
L 65.297889 141.00343 
L 66.250527 109.009723 
L 67.233569 79.384608 
L 67.973384 63.464304 
L 68.662527 53.159246 
L 69.3314 46.285233 
L 70.000274 41.563114 
L 70.679282 38.257612 
L 71.37856 35.897859 
L 72.10824 34.187464 
L 72.85819 32.970488 
L 73.638542 32.113339 
L 74.418895 31.573208 
L 75.178979 31.307999 
L 75.888391 31.29005 
L 76.54713 31.496308 
L 77.165331 31.929533 
L 77.75313 32.620109 
L 78.330793 33.652959 
L 78.908457 35.166743 
L 79.475986 37.305263 
L 80.043516 40.348272 
L 80.611045 44.655781 
L 81.188709 50.836057 
L 81.786641 59.80365 
L 82.414977 72.814204 
L 83.134523 92.75117 
L 85.120876 151.357695 
L 85.435044 154.267685 
L 85.566792 154.538583 
L 85.607329 154.506342 
L 85.718808 154.137642 
L 85.911363 152.549693 
L 86.205262 147.94922 
L 86.641043 137.137559 
L 87.472069 109.662186 
L 88.556455 76.110163 
L 89.29627 59.795366 
L 89.975278 49.379108 
L 90.634017 42.454845 
L 91.292757 37.750693 
L 91.951496 34.568918 
L 92.610235 32.420069 
L 93.279109 30.959188 
L 93.947983 30.00411 
L 94.626991 29.407199 
L 95.305999 29.095709 
L 95.995142 29.018555 
L 96.694419 29.162386 
L 97.403831 29.539557 
L 98.103108 30.170236 
L 98.782116 31.090589 
L 99.440856 32.372107 
L 100.079326 34.124343 
L 100.697528 36.503569 
L 101.305595 39.785716 
L 101.903527 44.31788 
L 102.50146 50.677023 
L 103.109527 59.711971 
L 103.737863 72.567212 
L 104.447275 91.998154 
L 106.595778 155.153449 
L 106.889677 157.356781 
L 106.980888 157.466324 
L 107.021425 157.426451 
L 107.143039 156.981224 
L 107.345728 155.176764 
L 107.649761 150.162092 
L 108.105812 138.472367 
L 109.098988 105.511114 
L 110.041492 77.835578 
L 110.771172 62.561817 
L 111.450181 52.740764 
L 112.10892 46.255685 
L 112.757525 41.929587 
L 113.40613 38.999757 
L 114.064869 36.990687 
L 114.733743 35.625767 
L 115.412751 34.717917 
L 116.112028 34.138567 
L 116.831574 33.822597 
L 117.571389 33.737273 
L 118.311204 33.87397 
L 119.03075 34.231824 
L 119.719893 34.824168 
L 120.378632 35.689662 
L 121.017103 36.913769 
L 121.62517 38.578231 
L 122.223102 40.893285 
L 122.810901 44.107056 
L 123.398699 48.644677 
L 123.986497 55.036511 
L 124.58443 64.119284 
L 125.212766 77.241353 
L 125.932312 97.286331 
L 127.898395 155.607583 
L 128.222698 158.71495 
L 128.36458 159.005927 
L 128.394983 158.981501 
L 128.506462 158.630251 
L 128.699017 157.070503 
L 128.992916 152.506022 
L 129.428697 141.726099 
L 130.249588 114.580604 
L 131.344109 80.539718 
L 132.083924 64.099234 
L 132.773066 53.430157 
L 133.44194 46.333199 
L 134.10068 41.554884 
L 134.769553 38.232962 
L 135.448562 35.921698 
L 136.147839 34.293072 
L 136.867385 33.160971 
L 137.597065 32.411287 
L 138.33688 31.959706 
L 139.066561 31.766849 
L 139.775972 31.804966 
L 140.454981 32.063297 
L 141.103585 32.549658 
L 141.731921 33.305128 
L 142.350123 34.413823 
L 142.948056 35.96189 
L 143.535854 38.123914 
L 144.123652 41.184237 
L 144.701316 45.428469 
L 145.289114 51.506806 
L 145.887047 60.168669 
L 146.515383 72.750187 
L 147.21466 91.5639 
L 148.380122 130.45666 
L 149.089533 150.06284 
L 149.484777 155.944056 
L 149.728004 157.154398 
L 149.798945 157.1404 
L 149.819214 157.105777 
L 149.950962 156.550817 
L 150.163785 154.474693 
L 150.488087 148.741427 
L 150.974541 135.61718 
L 153.315599 66.203254 
L 154.004742 54.719518 
L 154.663481 47.184634 
L 155.322221 42.062173 
L 155.98096 38.600456 
L 156.639699 36.262683 
L 157.308573 34.667112 
L 157.987582 33.597099 
L 158.676724 32.909655 
L 159.376001 32.514487 
L 160.095547 32.359386 
L 160.825228 32.430449 
L 161.544774 32.725009 
L 162.244051 33.2538 
L 162.923059 34.055525 
L 163.571664 35.178941 
L 164.2 36.734091 
L 164.808067 38.862861 
L 165.406 41.81482 
L 165.993798 45.903179 
L 166.581596 51.651814 
L 167.179529 59.842286 
L 167.797731 71.56277 
L 168.476739 88.94221 
L 169.409108 119.337696 
L 170.382016 149.065488 
L 170.817797 156.531833 
L 171.091427 158.289542 
L 171.162368 158.344522 
L 171.213041 158.281578 
L 171.344789 157.721149 
L 171.557612 155.634099 
L 171.881914 149.877657 
L 172.368368 136.700332 
L 174.729695 66.377637 
L 175.428972 54.693417 
L 176.097846 47.010793 
L 176.76672 41.756012 
L 177.435594 38.158538 
L 178.124737 35.612071 
L 178.834148 33.810409 
L 179.563829 32.541076 
L 180.313778 31.664657 
L 181.083996 31.097502 
L 181.84408 30.807164 
L 182.573761 30.76285 
L 183.252769 30.941998 
L 183.891239 31.340971 
L 184.509441 31.999016 
L 185.107374 32.974746 
L 185.695172 34.380117 
L 186.272835 36.362261 
L 186.850499 39.182875 
L 187.428163 43.184754 
L 188.005827 48.835813 
L 188.593625 56.893589 
L 189.211826 68.633624 
L 189.890835 86.062219 
L 190.833339 116.826622 
L 191.785977 145.736506 
L 192.221758 153.110083 
L 192.495389 154.804267 
L 192.56633 154.842884 
L 192.606868 154.790086 
L 192.728481 154.306421 
L 192.941305 152.311826 
L 193.255472 146.902461 
L 193.731792 134.277174 
L 196.204598 61.716544 
L 196.893741 50.780302 
L 197.55248 43.63232 
L 198.201085 38.84405 
L 198.84969 35.595669 
L 199.508429 33.370457 
L 200.167168 31.885037 
L 200.825908 30.914362 
L 201.494782 30.307459 
L 202.163655 29.988882 
L 202.852798 29.904527 
L 203.552075 30.043211 
L 204.261487 30.412623 
L 204.970898 31.03887 
L 205.660041 31.951195 
L 206.328915 33.218285 
L 206.97752 34.947614 
L 207.605856 37.294716 
L 208.213923 40.473007 
L 208.811855 44.846745 
L 209.409788 50.972541 
L 210.007721 59.50794 
L 210.636057 71.86792 
L 211.335334 90.404692 
L 212.348779 124.260933 
L 213.200073 149.834608 
L 213.635854 157.157998 
L 213.89935 158.779086 
L 213.970291 158.825703 
L 214.010829 158.777411 
L 214.132442 158.307182 
L 214.335131 156.462909 
L 214.649299 151.184545 
L 215.115484 139.047567 
L 216.260677 101.082661 
L 217.13224 76.675403 
L 217.851786 62.377936 
L 217.922727 61.235496 
L 217.922727 61.235496 
" clip-path="url(#p2e82b0f4cb)" style="fill: none; stroke: #1f77b4; stroke-width: 0.4; stroke-linecap: square"/>
   </g>
   <g id="patch_3">
    <path d="M 31.5 166.608 
L 31.5 22.464 
" style="fill: none; stroke: #000000; stroke-width: 0.8; stroke-linejoin: miter; stroke-linecap: square"/>
   </g>
   <g id="patch_4">
    <path d="M 226.8 166.608 
L 226.8 22.464 
" style="fill: none; stroke: #000000; stroke-width: 0.8; stroke-linejoin: miter; stroke-linecap: square"/>
   </g>
   <g id="patch_5">
    <path d="M 31.5 166.608 
L 226.8 166.608 
" style="fill: none; stroke: #000000; stroke-width: 0.8; stroke-linejoin: miter; stroke-linecap: square"/>
   </g>
   <g id="patch_6">
    <path d="M 31.5 22.464 
L 226.8 22.464 
" style="fill: none; stroke: #000000; stroke-width: 0.8; stroke-linejoin: miter; stroke-linecap: square"/>
   </g>
   <g id="legend_1">
    <g id="patch_7">
     <path d="M 95.726562 103.375063 
L 162.573438 103.375063 
Q 164.573438 103.375063 164.573438 101.375063 
L 164.573438 87.696938 
Q 164.573438 85.696938 162.573438 85.696938 
L 95.726562 85.696938 
Q 93.726562 85.696938 93.726562 87.696938 
L 93.726562 101.375063 
Q 93.726562 103.375063 95.726562 103.375063 
z
" style="fill: #ffffff; opacity: 0.8; stroke: #cccccc; stroke-linejoin: miter"/>
    </g>
    <g id="line2d_11">
     <path d="M 97.726562 93.795375 
L 107.726562 93.795375 
L 117.726562 93.795375 
" style="fill: none; stroke: #1f77b4; stroke-width: 0.4; stroke-linecap: square"/>
    </g>
    <g id="text_14">
     <!-- energy -->
     <g transform="translate(125.726562 97.295375) scale(0.1 -0.1)">
      <defs>
       <path id="DejaVuSans-6e" d="M 3513 2113 
L 3513 0 
L 2938 0 
L 2938 2094 
Q 2938 2591 2744 2837 
Q 2550 3084 2163 3084 
Q 1697 3084 1428 2787 
Q 1159 2491 1159 1978 
L 1159 0 
L 581 0 
L 581 3500 
L 1159 3500 
L 1159 2956 
Q 1366 3272 1645 3428 
Q 1925 3584 2291 3584 
Q 2894 3584 3203 3211 
Q 3513 2838 3513 2113 
z
" transform="scale(0.015625)"/>
       <path id="DejaVuSans-72" d="M 2631 2963 
Q 2534 3019 2420 3045 
Q 2306 3072 2169 3072 
Q 1681 3072 1420 2755 
Q 1159 2438 1159 1844 
L 1159 0 
L 581 0 
L 581 3500 
L 1159 3500 
L 1159 2956 
Q 1341 3275 1631 3429 
Q 1922 3584 2338 3584 
Q 2397 3584 2469 3576 
Q 2541 3569 2628 3553 
L 2631 2963 
z
" transform="scale(0.015625)"/>
       <path id="DejaVuSans-67" d="M 2906 1791 
Q 2906 2416 2648 2759 
Q 2391 3103 1925 3103 
Q 1463 3103 1205 2759 
Q 947 2416 947 1791 
Q 947 1169 1205 825 
Q 1463 481 1925 481 
Q 2391 481 2648 825 
Q 2906 1169 2906 1791 
z
M 3481 434 
Q 3481 -459 3084 -895 
Q 2688 -1331 1869 -1331 
Q 1566 -1331 1297 -1286 
Q 1028 -1241 775 -1147 
L 775 -588 
Q 1028 -725 1275 -790 
Q 1522 -856 1778 -856 
Q 2344 -856 2625 -561 
Q 2906 -266 2906 331 
L 2906 616 
Q 2728 306 2450 153 
Q 2172 0 1784 0 
Q 1141 0 747 490 
Q 353 981 353 1791 
Q 353 2603 747 3093 
Q 1141 3584 1784 3584 
Q 2172 3584 2450 3431 
Q 2728 3278 2906 2969 
L 2906 3500 
L 3481 3500 
L 3481 434 
z
" transform="scale(0.015625)"/>
       <path id="DejaVuSans-79" d="M 2059 -325 
Q 1816 -950 1584 -1140 
Q 1353 -1331 966 -1331 
L 506 -1331 
L 506 -850 
L 844 -850 
Q 1081 -850 1212 -737 
Q 1344 -625 1503 -206 
L 1606 56 
L 191 3500 
L 800 3500 
L 1894 763 
L 2988 3500 
L 3597 3500 
L 2059 -325 
z
" transform="scale(0.015625)"/>
      </defs>
      <use xlink:href="#DejaVuSans-65"/>
      <use xlink:href="#DejaVuSans-6e" x="61.523438"/>
      <use xlink:href="#DejaVuSans-65" x="124.902344"/>
      <use xlink:href="#DejaVuSans-72" x="186.425781"/>
      <use xlink:href="#DejaVuSans-67" x="225.789062"/>
      <use xlink:href="#DejaVuSans-79" x="289.265625"/>
     </g>
    </g>
   </g>
  </g>
 </g>
 <defs>
  <clipPath id="p2e82b0f4cb">
   <rect x="31.5" y="22.464" width="195.3" height="144.144"/>
  </clipPath>
 </defs>
</svg>
